<svg width="56" height="56" viewBox="0 0 56 56" fill="none" xmlns="http://www.w3.org/2000/svg">
<path d="M28.0001 4.66667C24.9359 4.66667 21.9017 5.2702 19.0708 6.44281C16.2399 7.61542 13.6676 9.33414 11.5009 11.5008C7.12507 15.8767 4.66675 21.8116 4.66675 28C4.66675 38.3133 11.3634 47.0633 20.6267 50.1667C21.7934 50.3533 22.1667 49.63 22.1667 49V45.0567C15.7034 46.4567 14.3267 41.93 14.3267 41.93C13.2534 39.2233 11.7367 38.5 11.7367 38.5C9.61342 37.0533 11.9001 37.1 11.9001 37.1C14.2334 37.2633 15.4701 39.5033 15.4701 39.5033C17.5001 43.05 20.9301 42 22.2601 41.44C22.4701 39.9233 23.0767 38.8967 23.7301 38.3133C18.5501 37.73 13.1134 35.7233 13.1134 26.8333C13.1134 24.2433 14.0001 22.1667 15.5167 20.51C15.2834 19.9267 14.4667 17.5 15.7501 14.35C15.7501 14.35 17.7101 13.72 22.1667 16.73C24.0101 16.2167 26.0168 15.96 28.0001 15.96C29.9834 15.96 31.9901 16.2167 33.8334 16.73C38.2901 13.72 40.2501 14.35 40.2501 14.35C41.5334 17.5 40.7168 19.9267 40.4834 20.51C42.0001 22.1667 42.8867 24.2433 42.8867 26.8333C42.8867 35.7467 37.4268 37.7067 32.2234 38.29C33.0634 39.0133 33.8334 40.4367 33.8334 42.6067V49C33.8334 49.63 34.2068 50.3767 35.3967 50.1667C44.6601 47.04 51.3334 38.3133 51.3334 28C51.3334 24.9358 50.7299 21.9016 49.5573 19.0707C48.3847 16.2398 46.6659 13.6675 44.4992 11.5008C42.3325 9.33414 39.7603 7.61542 36.9294 6.44281C34.0984 5.2702 31.0643 4.66667 28.0001 4.66667Z" fill="#F8F8F8"/>
</svg>
