<svg width="220" height="60" viewBox="0 0 220 60" fill="none" xmlns="http://www.w3.org/2000/svg">
<g clip-path="url(#clip0_2_7)">
<path d="M29.4178 20.4051C29.8478 20.0671 30.2221 19.6624 30.527 19.206C30.6035 19.0233 30.4632 19.0319 30.4058 18.6644C30.3294 18.344 30.274 18.0188 30.2401 17.6909C30.2082 16.8872 30.2571 16.0212 30.17 15.4581C30.1062 15.0541 29.0671 14.216 28.7824 13.9818C28.6018 13.8313 28.4105 13.6164 28.0854 13.2833C27.7357 13.2325 27.3963 13.1251 27.0803 12.9653C26.9595 12.9796 26.8373 12.9774 26.717 12.9588C26.5257 12.8929 26.3486 12.8263 26.1857 12.759C25.8776 12.6343 25.527 12.6021 25.3018 12.4796C24.8803 12.2929 24.5457 11.9499 24.3668 11.5212C24.6414 11.7014 24.9482 11.8255 25.2699 11.8865C24.5887 11.3531 23.8587 10.8868 23.0897 10.4939C22.76 10.3347 22.4191 10.2004 22.0698 10.0921C21.6529 10.0232 21.2319 9.983 20.8097 9.97173C20.3652 9.92114 19.9183 9.8946 19.471 9.89222C19.0531 10.075 18.6236 10.2293 18.1854 10.3543C17.9601 10.3843 17.6393 10.481 17.2504 10.5584C16.8616 10.6358 16.5343 10.6358 16.0605 10.7497C15.5654 10.8722 14.9938 11.0806 14.454 11.2654C14.165 11.3643 13.8888 11.4223 13.621 11.5212C13.3379 11.73 13.0257 11.8951 12.6946 12.0111C10.8969 12.8385 8.70822 13.7583 8.70822 13.7583C8.70822 13.7583 8.66147 13.855 8.78047 13.8614C9.73369 14.1426 10.6591 14.5124 11.545 14.966C11.681 14.966 11.6087 15.1014 11.6087 15.1959C11.4378 15.1972 11.2683 15.1651 11.1094 15.1014C10.0093 14.9208 8.89623 14.8331 7.78175 14.8392C7.28332 15.0328 6.82015 15.3087 6.41117 15.6558C6.19137 15.7857 5.9575 15.8895 5.7142 15.9653C5.23262 16.1153 4.74029 16.2273 4.24162 16.3005C4.10069 16.7209 3.87082 17.1052 3.56802 17.4266C3.33442 17.7062 3.18927 18.0503 3.15138 18.4143C3.11349 18.7784 3.18461 19.1455 3.35553 19.4682C3.55782 20.1808 3.53554 20.9394 3.29178 21.6386C3.17338 21.8408 3.11215 22.072 3.11477 22.3069C3.1174 22.5419 3.18377 22.7716 3.30666 22.971C3.78901 23.8156 3.44265 24.1143 4.47962 25.0212C4.88335 25.3757 5.80132 26.13 6.88078 27.0391C7.53951 27.5957 8.20674 28.2275 8.86334 28.769C9.44769 29.2547 10.0745 29.5942 10.5017 29.9058C10.8119 30.1315 11.1264 30.3786 11.256 30.4775C11.6737 30.8472 12.1313 31.168 12.6202 31.4338C13.7436 32.0142 14.8077 32.7052 15.797 33.4968C17.1739 34.5799 19.0205 36.1508 19.9321 37.0641C20.0361 37.1415 20.1159 37.2474 20.1622 37.3693C20.2086 37.4912 20.2194 37.6239 20.1934 37.7518C19.9574 37.8376 19.709 37.8841 19.4582 37.8894C19.5009 37.9168 19.5408 37.9485 19.5772 37.9839C19.6856 38.0785 20.0914 42.3808 20.0914 42.3808C20.1145 42.5261 20.1089 42.6746 20.0751 42.8178C20.0413 42.961 19.9799 43.096 19.8945 43.2152C19.809 43.3344 19.7012 43.4353 19.5771 43.5123C19.453 43.5892 19.3151 43.6407 19.1714 43.6637C19.1374 43.6694 19.1034 43.673 19.0694 43.6745C18.4524 43.7241 17.8316 43.6718 17.2313 43.5197C16.5116 43.3516 15.8287 43.0507 15.2169 42.6322C15.1319 42.5785 15.0108 42.6881 14.9959 42.5828C14.8013 42.3801 14.5862 42.1985 14.3541 42.0412C13.9901 41.748 13.702 41.3697 13.5148 40.9388L12.6882 40.9474C12.633 40.918 12.5873 40.8732 12.5564 40.8184C12.5255 40.7635 12.5108 40.7009 12.514 40.6379C12.6096 40.1372 12.9432 39.2712 13.0537 38.7876C13.1089 38.5469 13.0452 38.158 13.0856 37.6358C13.1323 37.0169 13.3214 35.9445 13.3214 35.9445C13.3214 35.9445 13.2109 34.8313 12.1506 35.88C11.1817 36.8544 10.2801 37.8948 9.45194 38.9939C8.51388 40.2045 7.48827 41.343 6.38355 42.4001C5.6717 42.9846 5.43371 42.9481 5.36571 43.4961C5.36571 43.4961 5.36146 43.7325 4.26925 43.4961C3.72527 43.3757 2.82005 44.0398 2.12945 44.7103C1.34322 45.4732 0.251013 46.4961 0.251013 46.4961C0.251013 46.4961 -0.399215 47.2504 0.393383 47.4502C0.964988 47.5921 2.07207 48.4517 2.91355 48.4968C3.79539 48.5441 5.28284 48.9416 5.59945 48.9481C5.91607 48.9545 6.14556 48.9803 6.14556 48.9803C6.46655 48.6675 6.85499 48.4343 7.28027 48.2991C7.63341 48.2176 7.99744 48.1959 8.35761 48.2346C8.35761 48.2346 9.04183 47.6544 9.31382 47.3836C10.1702 46.524 10.78 45.9008 11.2645 45.4538C11.3744 45.3459 11.4997 45.2553 11.6364 45.1852C11.7002 45.0849 11.7833 44.9987 11.8807 44.9316C12.0012 44.8019 12.1527 44.7057 12.3206 44.6522C12.5331 44.6372 12.2568 44.9015 11.9721 45.2647C11.8903 45.3976 11.8165 45.5354 11.7511 45.6773C11.6202 45.866 11.501 46.0626 11.3941 46.2661C11.307 46.4424 11.1965 46.6551 11.1965 46.6551C11.3784 46.7683 11.5723 46.8606 11.7745 46.9302L12.6032 47.2181C13.1238 47.3965 13.7804 47.5921 14.4901 47.8779C14.8443 47.997 15.2065 48.0904 15.5739 48.1573C16.4004 48.4743 17.2838 48.6113 18.1663 48.5591C18.604 48.4474 18.4043 48.3227 19.165 48.0584C19.5243 48.0111 19.8875 48.0017 20.2487 48.0305C20.6631 48.0176 20.7587 47.5964 21.6384 47.7404C21.9678 47.7962 22.4352 47.9402 22.8581 48.0111C23.1597 48.0608 23.4642 48.0896 23.7697 48.0971C22.7704 48.1431 21.7792 48.3002 20.8139 48.5656C20.7439 48.5884 20.6774 48.6209 20.6163 48.6623C20.8645 48.7878 21.1359 48.8595 21.4132 48.8729C21.7361 48.9373 22.7136 49.1845 23.1343 49.3177C23.3341 49.3822 23.2916 49.2575 23.587 49.0383C23.9275 48.8303 24.309 48.7004 24.7047 48.658C25.068 48.6365 25.204 48.3249 25.1658 47.8328C25.2472 46.1325 25.4632 44.4415 25.8118 42.7762C25.8918 42.4538 25.929 42.1221 25.9222 41.7898C25.7111 40.8994 25.4333 40.0266 25.0914 39.1788C24.8364 38.3811 24.518 37.6057 24.1394 36.86C23.4743 35.519 23.2725 35.0484 22.142 34.3994C20.8607 33.6601 20.9265 33.2024 20.3443 32.6845C19.8736 32.2504 19.3737 31.8497 18.8484 31.4853C18.4616 31.2404 17.8667 30.9051 17.4778 30.6279C16.5732 29.9277 15.6114 29.3065 14.6028 28.7712C13.6644 28.3599 12.7587 27.8764 11.8935 27.3249C11.1564 26.7995 10.4622 26.2153 9.81743 25.5778C9.17268 24.9855 8.56651 24.3517 8.00274 23.6802C7.7632 23.451 7.59619 23.1552 7.52282 22.8301C7.44945 22.5049 7.473 22.1651 7.59051 21.8535C7.576 21.7568 7.5689 21.6591 7.56926 21.5613C7.63948 21.3717 7.68935 21.175 7.718 20.9746C7.72539 20.7386 7.77883 20.5063 7.87525 20.2912C7.91562 20.2117 8.04949 20.2805 8.10474 20.2053C8.17699 20.1043 8.38098 19.8786 8.46173 19.7669C8.70397 19.4381 8.94834 19.1351 9.04821 19.0212C9.1587 18.8922 9.06308 19.2941 8.75497 19.7991C8.29598 20.5534 8.15361 20.88 8.18549 21.269C8.58671 20.8864 9.0269 20.5478 9.49869 20.259C10.0601 19.9343 10.6455 19.6541 11.2496 19.4209C11.6619 19.264 12.5012 19.2189 13.1366 18.9481C13.4241 18.8042 13.6723 18.5909 13.859 18.327C14.409 17.8295 15.0521 17.4488 15.7502 17.2074C16.4245 16.9901 17.121 16.8509 17.8263 16.7927C18.2595 16.7224 18.6967 16.6808 19.1352 16.668C19.3647 16.668 19.93 16.7196 20.1488 16.7411C20.7119 16.7969 21.7468 17.1193 22.3672 17.2396C22.5432 17.2766 22.717 17.3232 22.8879 17.3793C23.0776 17.417 23.2639 17.4709 23.4446 17.5405C23.8827 17.744 24.3041 17.9826 24.7047 18.254C24.802 18.3319 24.8789 18.4328 24.9286 18.5479C24.9782 18.6629 24.9991 18.7886 24.9894 18.9137C24.9339 19.1666 24.8315 19.4065 24.6877 19.6207C24.5325 19.8012 24.2903 20.1773 23.9992 20.5018C23.6592 20.8822 23.2385 21.1852 22.8262 21.6451C21.8996 22.6441 21.1183 23.7715 20.5058 24.9932C20.5526 25.4209 20.7523 26.3492 20.7523 26.3492C21.6954 25.2398 22.8874 24.3747 24.2287 23.8263C24.966 23.5255 25.5164 23.2676 25.8627 23.1021C26.3812 22.8528 26.3791 22.8442 26.5215 22.4746C26.7552 21.8471 26.8678 21.7912 27.6264 21.5785C27.9048 21.5305 28.1734 21.436 28.4212 21.2991C28.7787 21.0297 29.1128 20.7299 29.4199 20.403L29.4178 20.4051ZM20.4803 42.7869C20.5802 41.8843 20.6227 41.3514 20.6227 41.3514C20.6227 41.3514 20.8373 43.0255 20.8054 43.3994C20.738 43.7072 20.5596 43.9786 20.305 44.1606C20.0504 44.3426 19.7379 44.4221 19.4285 44.3836C19.4285 44.3836 19.335 44.2676 19.7472 44.0742C19.8668 43.9568 19.9653 43.8194 20.0383 43.668C20.2777 43.4316 20.4331 43.1219 20.4803 42.7869ZM40.0934 28.0512C40.0189 27.993 39.9357 27.9473 39.8469 27.9159C39.7483 27.7641 39.6312 27.6255 39.4984 27.5033C39.0585 27.1745 38.7334 26.8242 38.4572 26.6458C38.3116 26.5965 38.1576 26.5775 38.0046 26.5899C37.9173 26.5411 37.8196 26.5146 37.7198 26.5126C37.0887 26.5126 37.1631 26.5512 36.8231 26.1623C36.4831 25.7733 36.2728 25.2124 35.7862 25.5025C35.6055 25.61 35.2634 25.7475 34.8831 25.956C34.2538 26.2651 33.6806 26.6792 33.1874 27.1809C33.1113 27.4043 33.0606 27.6357 33.0365 27.8707C32.9813 28.3242 32.5329 28.0942 32.3863 27.9502C32.3286 27.9107 32.2614 27.8876 32.1919 27.8834C32.1223 27.8792 32.0529 27.8942 31.991 27.9266C31.8768 28.0228 31.7903 28.1482 31.7403 28.2898C31.3168 28.9427 30.7532 29.4907 30.0914 29.8929C29.7226 30.071 29.3718 30.2848 29.0438 30.5312C29.0319 30.7774 28.9977 31.0219 28.9418 31.2618C28.8823 31.5262 28.7484 31.8098 28.6719 32.1515C28.5317 32.7597 28.3787 33.4818 28.2257 34.0641C28.1162 34.4818 27.9777 34.8911 27.8113 35.2891C27.7667 35.4051 27.7518 36.5634 27.6796 37.279C27.6116 37.9753 27.8751 38.2461 27.9409 38.8994C28.0174 39.6214 27.9027 40.7131 27.9558 41.1236C28.2341 42.1815 28.6704 43.1903 29.2499 44.115C29.541 44.7468 29.1691 45.2454 29.558 45.8772C29.7705 46.221 30.1105 46.7518 30.5397 47.3149C30.9222 47.8156 30.9519 48.052 31.1666 48.3227C31.5216 48.5479 31.9085 48.7167 32.314 48.8234C33.0662 49.0469 34.3051 49.3478 34.3051 49.3478C34.4186 49.3344 34.5238 49.2811 34.6026 49.1974C35.0159 49.0759 35.443 49.0088 35.8733 48.9975C36.1155 48.9502 38.3934 47.7511 38.9799 47.6007C39.0738 47.5713 39.166 47.5369 39.2562 47.4975C39.2723 47.3988 39.2605 47.2975 39.2222 47.2053C39.0695 47.1537 38.9092 47.1289 38.7483 47.1322C38.5851 47.0327 38.4049 46.9649 38.2171 46.9323C38.0428 46.9173 37.8133 47.014 37.3182 47.057C36.4992 47.1209 35.6826 46.9045 34.9999 46.4424C34.8167 46.346 34.6485 46.2229 34.5006 46.077C34.3093 45.8793 34.0968 45.6043 33.8673 45.3141C33.6612 45.0541 33.3977 44.7855 33.2022 44.4975C32.9262 44.0828 32.7048 43.6334 32.5435 43.1608C32.4015 42.8038 32.2829 42.4377 32.1887 42.0649C32.1208 41.7447 32.1565 41.4109 32.2907 41.1128C32.3528 40.9711 32.4617 40.8556 32.5988 40.7862C32.7952 40.7036 32.9862 40.6081 33.1704 40.5004C33.4176 40.3084 33.7045 40.1754 34.0097 40.1114C34.4588 40.0479 34.9121 40.0213 35.3654 40.0319C35.6155 40.0307 35.8623 39.9735 36.0879 39.8643C36.3111 39.6608 36.514 39.4355 36.6935 39.1916C36.9974 38.8908 37.3799 38.4266 37.7007 38.1515C37.9125 37.968 38.1468 37.8127 38.3977 37.6895C39.0373 36.9392 39.517 36.0635 39.8065 35.1171C39.8632 34.4144 39.8717 33.7086 39.832 33.0047C39.832 32.519 40.512 30.8686 40.512 30.0928C40.5095 29.3905 40.3685 28.6961 40.0934 28.0512ZM33.2469 37.6723C32.9065 37.7935 32.5756 37.94 32.2567 38.1107C32.1337 38.159 32.0009 38.176 31.8699 38.1601C31.7966 38.1312 31.7256 38.0968 31.6574 38.057C31.4279 38.0011 31.4364 37.8894 31.4364 37.8894C31.604 37.738 31.8217 37.6559 32.0463 37.6594C32.1994 37.6963 32.3563 37.7151 32.5138 37.7153C32.7135 37.6702 33.0025 37.5541 33.13 37.5391C33.249 37.5283 33.5359 37.5176 33.5359 37.5176C33.4499 37.5869 33.3519 37.6394 33.2469 37.6723ZM36.1453 35.4373C36.0892 35.7314 35.9391 35.9987 35.7182 36.1981C35.6006 36.4092 35.4531 36.6018 35.2804 36.7697C34.8808 36.9353 34.4542 37.0242 34.0225 37.0319C33.5984 37.0414 33.1763 37.0932 32.7624 37.1866C32.6966 37.2464 32.6166 37.2879 32.5302 37.3071C32.4438 37.3263 32.3539 37.3226 32.2694 37.2962C32.1126 37.1791 31.9352 37.093 31.7467 37.0426C31.6079 36.9421 31.4919 36.8129 31.4062 36.6636C31.3205 36.5143 31.2671 36.3483 31.2494 36.1766C31.1554 35.72 31.1613 35.2482 31.2667 34.7942C31.372 34.3402 31.5743 33.915 31.8593 33.5484C32.1355 33.1487 32.4373 32.865 32.7071 32.5169C32.9626 32.1799 33.192 31.8235 33.3935 31.451C33.6467 31.0133 33.9338 30.5965 34.252 30.2045C34.5501 29.8234 34.8846 29.4728 35.2507 29.158C35.3727 29.0629 35.5217 29.0102 35.6757 29.0076C35.6757 29.0076 35.7458 29.332 35.7883 29.5083C35.8563 29.7876 35.9009 30.3313 36.0071 31.1114C36.0518 31.4338 36.1346 31.9474 36.2069 32.2719C36.3819 33.321 36.361 34.396 36.1453 35.4373ZM56.3746 47.5813C55.5317 46.8973 54.7279 46.1655 53.967 45.3894C53.8714 44.7081 53.6908 44.7661 53.6823 44.3127C53.8458 44.5648 53.9886 44.83 54.1094 45.1057C54.4234 45.4728 54.8128 45.7661 55.2505 45.9653C55.2505 45.9653 55.1485 45.6795 54.7596 44.85C53.7366 42.707 53.3049 40.3244 53.5102 37.9538C53.8077 34.0362 54.1583 31.4488 54.1583 31.4488L53.9033 32.1795C53.8228 32.0035 53.795 31.8077 53.8234 31.616C53.8517 31.4243 53.9349 31.2451 54.0626 31.1007C54.1139 31.073 54.1587 31.0345 54.1939 30.9878C54.2291 30.9411 54.2539 30.8872 54.2666 30.8299C54.3127 30.6048 54.3708 30.3824 54.4409 30.1637C54.5748 29.8005 54.8574 29.3278 54.9955 28.8614C55.115 28.3795 55.21 27.8918 55.2802 27.4001C55.4438 26.8767 55.5136 26.328 55.4863 25.7798C55.4863 25.7798 55.4502 25.6057 55.0614 25.653C54.6725 25.7002 54.6789 25.5885 54.6789 25.5885L53.7588 25.019C53.6456 25.0187 53.5346 25.0508 53.4387 25.1117C53.3428 25.1725 53.2659 25.2596 53.2169 25.3629C53.08 25.5084 52.9543 25.6643 52.8408 25.8292C52.5943 26.2139 52.2246 27.0025 51.9228 27.4796C51.7653 27.6375 51.5898 27.776 51.4001 27.8922C51.283 28.1001 51.1441 28.2946 50.9858 28.4724C51.0152 28.1802 51.1257 27.9023 51.3045 27.6709C51.3498 27.5968 51.4025 27.5277 51.4617 27.4646L51.5255 27.0842C51.4272 27.1166 51.3272 27.1431 51.2259 27.1637C51.2259 27.1637 49.6874 27.7912 48.6568 28.1329C47.6581 28.466 46.6169 28.524 46.1345 29.057C45.8274 29.4776 45.449 29.84 45.0168 30.1272C44.6322 30.3206 44.2412 31.3908 44.1924 31.5863L45.138 31.5606L44.6301 31.8163C44.573 32.0686 44.4882 32.3137 44.3772 32.5469C44.2561 32.8306 43.9947 33.2927 43.8396 33.6515C43.5081 34.4316 43.2638 34.7862 42.9684 35.4846C42.8983 35.6479 42.8685 35.8521 42.7942 36.024C42.7262 36.1788 42.6135 36.2969 42.5434 36.4538C42.3161 36.9674 42.1142 37.4982 41.9059 37.9452C41.5596 38.6952 41.2578 39.2432 41.2323 39.3163C41.0721 40.0677 40.9909 40.8341 40.9901 41.6028C40.9997 41.9081 40.9933 42.2137 40.971 42.5183C40.8927 42.7874 40.8693 43.0698 40.9022 43.3483C40.9351 43.6268 41.0235 43.8957 41.1622 44.1386C41.249 44.4668 41.3993 44.7743 41.6042 45.0434C41.9506 45.3614 42.3904 45.7869 42.9047 46.2189C43.3211 46.5692 43.8609 46.928 44.2519 47.2504C44.9361 47.8177 45.6139 48.4431 45.6139 48.4431C45.8547 48.4281 46.0962 48.455 46.3279 48.5226C46.6829 48.6367 47.0491 48.7109 47.4201 48.7439C47.6401 48.5127 47.8171 48.2434 47.9429 47.9488C47.9431 47.6961 47.9803 47.4448 48.0534 47.2031C48.1663 46.9866 48.3176 46.7928 48.4996 46.6315C48.8715 46.2253 49.3538 45.6644 49.3538 45.6644C49.3538 45.6644 49.4112 45.211 49.4176 44.966C49.4303 44.1859 50.5098 43.4574 50.5098 43.4574C50.659 43.82 50.7701 44.1974 50.8413 44.5835C50.826 45.1144 50.9119 45.6434 51.0941 46.1415C51.3012 46.4635 51.5915 46.7222 51.9335 46.8894L52.5199 47.2547L54.7872 48.2561C54.7872 48.2561 55.2972 48.2002 55.786 48.1766C56.0728 48.1616 56.5148 48.1916 56.7209 48.1916C56.7127 48.1263 56.697 48.0621 56.6742 48.0004C56.7252 47.7898 56.6912 47.8822 56.3724 47.5813H56.3746ZM42.9238 45.471C42.7347 45.3536 42.5531 45.2244 42.3798 45.0842C42.2417 44.9746 42.1397 44.9853 42.0037 44.8693C41.7875 44.6638 41.6008 44.4287 41.4491 44.1709C41.3797 44.0161 41.3519 43.8457 41.3683 43.6766C41.3938 43.4123 41.5468 43.1673 41.5596 42.8514C41.527 42.6199 41.4736 42.3919 41.4002 42.1702C41.3906 41.8568 41.4006 41.5431 41.43 41.231C41.4591 41.4612 41.5017 41.6894 41.5575 41.9144L41.8613 43.408C41.8895 43.539 41.9429 43.6632 42.0186 43.7733C42.0834 43.9772 42.1688 44.1738 42.2736 44.36C42.546 44.7583 42.8649 45.1219 43.2234 45.4431C43.2446 45.4603 43.4061 45.6171 43.4146 45.63C43.4763 45.7289 43.0917 45.557 42.9217 45.471H42.9238ZM49.8064 41.0763C49.8064 41.6587 48.71 42.1422 48.1405 42.471C47.5863 42.6705 47.0011 42.7673 46.4129 42.7568C46.7635 42.6517 47.107 42.5239 47.4414 42.3743C47.4145 42.2686 47.3636 42.1707 47.2926 42.0885C47.1515 41.9353 47.0654 41.7385 47.0483 41.5298C46.5599 41.1703 46.1236 40.7435 45.7521 40.2618C45.5396 39.9975 45.3844 39.7246 45.1911 39.4646C45.0441 39.2674 44.9017 39.0668 44.764 38.8628C44.6249 38.6994 44.5467 38.4918 44.543 38.2762L45.4609 39.3399L45.5396 37.3371C45.5396 37.3371 46.9633 34.7905 47.7877 33.2841C48.6122 31.7776 48.8077 31.8227 48.8077 31.8227L49.5344 31.5326C49.5769 31.5219 49.6895 31.3757 49.7235 31.4295C49.7365 31.7368 49.7308 32.0447 49.7065 32.3514C49.8425 33.8535 49.7894 37.0598 49.8255 38.6802C49.8 39.1616 50.0168 39.6365 49.8362 40.0835C49.7827 40.4102 49.7727 40.7426 49.8064 41.072V41.0763ZM50.6543 39.2174C50.3609 39.8372 50.0272 40.4367 49.6556 41.0118C49.6556 41.0118 49.9807 39.7955 50.1634 39.1852C50.3216 38.1453 50.3799 37.0924 50.3376 36.0412C50.3376 36.0412 50.3547 36.5462 50.4311 37.0899C50.48 37.423 50.6479 37.6272 50.6861 37.9796C50.7387 38.3906 50.7287 38.8073 50.6564 39.2153L50.6543 39.2174ZM68.9031 34.0985C68.906 34.1357 68.906 34.1731 68.9031 34.2103C68.85 34.1974 68.7926 34.1931 68.7374 34.1823C68.782 34.1437 68.85 34.0534 68.9052 34.0964L68.9031 34.0985ZM66.179 37.6873C65.9063 37.4758 65.6041 37.3063 65.2823 37.1845C65.3274 37.1571 65.3785 37.1413 65.431 37.1383C65.4836 37.1353 65.5361 37.1452 65.584 37.1673C65.6914 37.1875 65.8 37.2004 65.9091 37.206C66.1178 37.0221 66.315 36.8255 66.4998 36.6171C66.5165 36.5224 66.5399 36.4291 66.57 36.3378C66.6686 36.3049 66.7695 36.279 66.8717 36.2604C67.0098 36.1379 67.1309 36.0025 67.2648 35.8757C67.3065 35.9083 67.334 35.9562 67.3413 36.009C67.3094 36.0369 67.2669 36.0563 67.2351 36.0842C67.1999 36.2227 67.197 36.3677 67.2266 36.5075C67.1804 36.6457 67.1638 36.7922 67.1777 36.9373C67.0523 37.1758 66.9437 37.4228 66.8526 37.6766C66.8228 37.711 66.8101 37.7583 66.7846 37.7948C66.7714 37.8424 66.7642 37.8915 66.7633 37.9409C66.6635 38.122 66.5358 38.286 66.3851 38.4266C66.2193 38.4782 66.0621 38.5383 65.8836 38.5813C65.9452 38.4008 66.0132 38.2267 66.0685 38.0398C66.1115 37.9924 66.1438 37.9362 66.1632 37.875C66.1827 37.8138 66.1888 37.749 66.1811 37.6852L66.179 37.6873ZM66.4127 42.3335C66.7048 42.3233 66.9928 42.2599 67.2627 42.1465C67.168 42.1021 67.0758 42.0526 66.9864 41.9982C66.9887 41.9829 66.9944 41.9682 67.0033 41.9555C67.0122 41.9428 67.0239 41.9324 67.0374 41.9252C67.3349 41.9123 67.6707 41.85 67.9618 41.8435C67.9342 42.0885 67.4136 41.9037 67.4136 42.1487C67.5899 42.1831 67.8598 42.0928 68.0192 42.1487C67.9979 42.2647 67.8449 42.2282 67.7535 42.2368C67.3137 42.2798 66.6911 42.37 66.2576 42.4495C66.2306 42.4646 66.2003 42.4725 66.1694 42.4725C66.1386 42.4725 66.1082 42.4646 66.0812 42.4495C66.1224 42.4029 66.1746 42.3676 66.233 42.3469C66.2913 42.3263 66.3539 42.3209 66.4148 42.3313L66.4127 42.3335ZM80.0165 48.1035C80.2525 47.6517 80.3983 47.1574 80.4457 46.6487C80.4008 46.5935 80.3728 46.5263 80.3652 46.4553C80.3577 46.3842 80.3709 46.3125 80.4032 46.249C80.246 46.2425 80.1057 46.2146 79.9506 46.2038C79.9821 46.2446 80.0105 46.2877 80.0356 46.3328C80.0242 46.4242 79.9835 46.5093 79.9198 46.5753C79.8562 46.6412 79.773 46.6843 79.6829 46.6981C79.6206 46.6798 79.5648 46.6437 79.5222 46.5941C79.4796 46.5446 79.452 46.4837 79.4428 46.4187C79.3578 46.4058 79.2706 46.3994 79.1856 46.3886C79.0599 46.3103 78.9443 46.2165 78.8414 46.1093C78.884 46.0334 78.9209 45.9543 78.9519 45.8729C78.9186 45.8643 78.8882 45.8468 78.8639 45.8222C78.8396 45.7976 78.8223 45.7669 78.8138 45.7332C78.8396 45.666 78.8803 45.6057 78.9328 45.557C78.6225 44.9681 78.3165 44.375 78.0084 43.7862C77.9999 43.7346 77.9787 43.7002 77.9723 43.6465C77.9504 43.3912 77.9712 43.134 78.0339 42.8858C78.0331 42.8469 78.0425 42.8085 78.0612 42.7745C78.0798 42.7405 78.1071 42.7122 78.1402 42.6924C78.2401 42.7654 79.005 44.7554 79.3238 45.4001C79.4725 45.3722 79.498 45.514 79.5426 45.63L79.5724 45.6515C79.7594 45.5828 79.9634 45.4624 80.1674 45.3808C80.1397 45.269 80.161 45.2024 80.2736 45.1809C80.3756 44.6866 80.4819 44.1924 80.5966 43.7067C80.6316 43.6994 80.6635 43.6815 80.6882 43.6555C80.7129 43.6294 80.7292 43.5964 80.735 43.5608C80.7407 43.5251 80.7357 43.4886 80.7205 43.4559C80.7052 43.4233 80.6806 43.3961 80.6497 43.3779C80.705 43.2447 80.8197 43.1544 80.8707 43.0169C80.8091 42.8836 80.5902 42.7805 80.705 42.6171C80.6702 42.6027 80.6406 42.578 80.62 42.5462C80.6282 42.5152 80.6294 42.4826 80.6235 42.451C80.6176 42.4194 80.6048 42.3895 80.586 42.3636C80.5732 42.3184 80.637 42.3141 80.6072 42.2776C80.5718 42.2211 80.5281 42.1704 80.4776 42.1272C80.4848 42.1015 80.4859 42.0745 80.4807 42.0483C80.4756 42.0222 80.4643 41.9976 80.4479 41.9767C80.0186 41.8908 80.144 41.706 80.1631 41.6995C80.2269 41.6845 80.263 41.7124 80.3246 41.6995C80.5796 41.6544 80.6816 41.4911 80.9472 41.4524C81.1493 41.4521 81.3506 41.4774 81.5464 41.5276C81.6563 41.7334 81.7466 41.9493 81.8163 42.1723C81.8072 42.2848 81.7923 42.3967 81.7717 42.5075C81.7998 42.5309 81.8187 42.5637 81.8248 42.6C81.8248 42.6644 81.7377 42.673 81.7441 42.7396C81.7815 42.8004 81.8265 42.856 81.8779 42.9051C81.8619 42.9394 81.8497 42.9755 81.8418 43.0126C81.9268 43.1243 82.0415 43.1931 82.118 43.3113C82.112 43.3532 82.1013 43.3943 82.0862 43.4338C82.6065 43.6165 83.0923 43.8876 83.5226 44.2353L83.8711 43.8915C83.8845 43.7044 83.9143 43.5188 83.9604 43.3371C83.9473 43.1978 83.9424 43.0579 83.9455 42.918C83.9633 42.8779 83.9861 42.8404 84.0135 42.8063C84.005 42.7719 83.9625 42.774 83.9774 42.7353C84.0945 42.5455 84.1934 42.3447 84.2727 42.1358C84.2409 42.0442 84.214 41.9509 84.192 41.8564C84.2231 41.8102 84.2501 41.7613 84.2727 41.7103C84.2537 41.6432 84.2437 41.5738 84.243 41.504C84.3257 41.3752 84.4258 41.2587 84.5405 41.158C84.6959 40.8979 84.8861 40.6607 85.1057 40.4531C85.3209 40.2371 85.5198 40.0051 85.7007 39.759C85.6518 39.5075 85.6454 39.3141 85.6199 39.0777C85.4819 38.9775 85.3346 38.8912 85.1801 38.8199C85.1298 38.8544 85.0708 38.8738 85.0101 38.8757C84.9575 38.8612 84.9112 38.8295 84.8783 38.7855C84.7572 38.4932 84.5341 38.274 84.413 37.9904C84.2422 37.7238 84.0977 37.4409 83.9816 37.1458C84.0229 36.7639 84.2014 36.4106 84.4831 36.153C84.5089 35.8531 84.5572 35.5557 84.6276 35.2633C84.6361 34.7626 84.5086 34.2017 84.5638 33.7332C84.5986 33.603 84.608 33.4673 84.5915 33.3335C84.6 33.2948 84.6021 33.2518 84.6085 33.2131C84.5596 32.8586 84.6403 32.5362 84.566 32.1386C84.1817 31.8069 83.8308 31.4377 83.5184 31.0362C83.1804 30.5918 82.9242 30.0895 82.7619 29.5534C82.543 29.4932 82.3284 29.4288 82.1117 29.3664C82.0012 29.3342 81.8907 29.3041 81.7844 29.2697C81.6728 29.2595 81.5669 29.2153 81.4806 29.1429C81.5571 29.1032 81.6439 29.0882 81.7292 29.1C81.8716 29.0871 82.033 29.072 82.1414 29.0505C81.9161 28.6587 81.6714 28.2785 81.4083 27.9116C81.3262 27.7086 81.2259 27.5137 81.1087 27.3292C81.0821 27.307 81.0509 27.2911 81.0175 27.2826C80.9841 27.274 80.9492 27.2731 80.9153 27.2798C80.8607 27.1969 80.7809 27.1342 80.688 27.1014C80.2353 27.1318 79.789 27.2259 79.362 27.3808C79.1623 27.5097 79.005 27.673 78.8053 27.8063C78.3688 27.9062 77.9492 28.0706 77.5601 28.2941C77.208 28.5107 76.8524 28.7213 76.4934 28.9259C76.3276 29.1021 76.1279 29.2525 75.9664 29.4331C75.6774 29.5448 75.4097 29.6694 75.1228 29.7812C75.0633 29.8586 74.9995 29.9325 74.9315 30.0025C74.7436 30.0296 74.5649 30.1022 74.4107 30.214C74.2564 30.3259 74.1311 30.4738 74.0455 30.6451C73.913 30.6685 73.7829 30.7037 73.6566 30.7504C73.1849 31.1265 72.7046 31.5004 72.2308 31.8743C71.9885 32.0634 71.7463 32.2396 71.5274 32.4459C71.3085 32.6522 71.0918 32.8564 70.8687 33.0541C70.8009 33.0823 70.7313 33.106 70.6604 33.125C70.6336 33.2013 70.6024 33.2759 70.5669 33.3485C70.5182 33.3186 70.4714 33.2855 70.4267 33.2497C70.3853 33.2205 70.3393 33.1987 70.2907 33.1852C70.4799 33.5721 70.6254 33.9794 70.7242 34.3994C70.7586 34.551 70.7637 34.7079 70.7391 34.8614C70.587 34.7722 70.4171 34.7186 70.2418 34.7045C70.3622 34.8412 70.473 34.9863 70.5733 35.1386C70.633 35.0855 70.7003 35.042 70.7731 35.0097C70.7988 35.0502 70.8135 35.097 70.8156 35.1451L71.0706 35.0247C71.3 35.1457 71.5177 35.2882 71.7208 35.4502C71.7924 35.5145 71.8516 35.5917 71.895 35.678C71.9099 36.0219 71.895 36.3507 71.8865 36.6795C71.9111 36.9778 71.9075 37.2779 71.8759 37.5756C71.8924 37.8482 71.8288 38.1196 71.6932 38.3557C71.6209 38.3618 71.5483 38.3485 71.4828 38.317C71.4573 38.4262 71.3977 38.5241 71.3128 38.5964C71.2491 38.5749 71.1917 38.5448 71.1258 38.5276L71.0833 38.8822C71.0663 38.9144 71.0217 38.8822 71.0302 38.9316C71.0916 38.9223 71.1516 38.905 71.2087 38.88C71.2058 38.8411 71.2107 38.8021 71.2232 38.7651C71.2356 38.7282 71.2552 38.6942 71.2809 38.6651C71.3455 38.6625 71.4102 38.6654 71.4743 38.6737C71.7335 38.4674 71.9991 38.2676 72.2669 38.072C72.2456 38.0226 72.1564 38.0656 72.1564 37.9947C72.1527 37.9688 72.1552 37.9424 72.1638 37.9177C72.1723 37.893 72.1865 37.8708 72.2053 37.8528C72.4166 37.7668 72.6425 37.723 72.8704 37.7239C73.2097 37.383 73.5657 37.0596 73.9371 36.7547C74.0608 36.6451 74.1938 36.5466 74.3344 36.4603C74.4407 36.4624 74.4449 36.5957 74.3982 36.6623C74.2091 36.8643 74.0391 37.0792 73.8521 37.2812C73.7671 37.3886 73.6757 37.4896 73.5843 37.5885C73.4904 37.6895 73.4038 37.7973 73.3251 37.9108C73.3472 37.9741 73.3454 38.0434 73.3199 38.1054C73.2943 38.1673 73.247 38.2174 73.187 38.2461C73.1197 38.2453 73.0536 38.2636 72.9961 38.2989C72.9386 38.3342 72.8921 38.3852 72.8619 38.4459C72.8703 38.5208 72.8725 38.5963 72.8682 38.6716C72.7407 38.8543 72.6302 39.0498 72.5006 39.2303C72.4773 39.3979 72.4348 39.5527 72.4093 39.7246C72.2563 39.9868 72.1033 40.2533 71.9566 40.5219C72.2403 40.4723 72.5212 40.4077 72.7981 40.3285C72.8948 40.3567 72.9899 40.3904 73.0829 40.4295C73.1688 40.4189 73.2557 40.4403 73.3272 40.4896C73.2656 40.5347 73.1942 40.5642 73.119 40.5756C72.8682 40.653 72.6132 40.7067 72.3731 40.7755C72.1532 40.7977 71.9364 40.8453 71.7272 40.9173C71.6778 40.9937 71.6378 41.076 71.6082 41.1623C71.759 41.1322 71.929 41.0806 72.0735 41.0462C72.116 41.0376 72.184 40.9968 72.2095 41.0527C72.1283 41.1424 72.0378 41.2231 71.9396 41.2934C71.5317 41.461 71.1109 41.6157 70.7008 41.7812C70.6696 41.7795 70.6386 41.7869 70.6116 41.8027C70.7051 41.7812 70.7773 41.7898 70.8687 41.7747C70.9792 41.7876 71.1131 41.764 71.1386 41.8865C71.1194 41.9132 71.0946 41.9351 71.0659 41.9508C71.0372 41.9664 71.0054 41.9753 70.9728 41.9767C70.6891 42.0348 70.4025 42.0779 70.1143 42.1057C69.9954 42.134 69.8705 42.1188 69.7616 42.0627C69.7191 42.0197 69.8275 41.9596 69.7977 41.9488C69.4927 41.9401 69.1875 41.9603 68.8861 42.009C68.8272 42.0112 68.7709 42.034 68.7268 42.0734C68.8606 42.0799 69.0157 42.0584 69.1539 42.0563C69.2806 42.0385 69.4096 42.0578 69.5257 42.1121C69.5576 42.2282 69.2984 42.2862 69.2219 42.2991C69.1645 42.3077 69.0965 42.3012 69.037 42.3077C68.4845 42.3636 67.9363 42.4538 67.3519 42.5376C66.7676 42.6214 66.2087 42.6881 65.6732 42.7676C65.6541 42.763 65.6363 42.754 65.6212 42.7414C65.6061 42.7287 65.5941 42.7127 65.5861 42.6945C65.5691 42.6343 65.6371 42.5935 65.6074 42.5656C65.5348 42.5537 65.4606 42.5551 65.3885 42.5699C65.3454 42.5495 65.3071 42.5202 65.2759 42.4839C64.9339 42.5526 64.5841 42.5721 64.2368 42.5419C64.2239 42.5105 64.2167 42.4771 64.2155 42.4431C64.2762 42.3875 64.3424 42.3386 64.4132 42.2969C64.972 42.1959 65.5755 42.052 66.1344 41.9252C66.2117 41.9259 66.2869 41.8993 66.3468 41.85C65.8305 41.9058 65.278 41.9961 64.785 42.0713C64.717 42.0606 64.6214 42.0906 64.6065 42.0047C64.6316 41.9471 64.6771 41.9011 64.734 41.8757C64.5003 41.8994 64.2708 41.9252 64.0116 41.9617C63.9813 41.9611 63.9516 41.9538 63.9244 41.9402C63.8791 41.9605 63.828 41.9635 63.7806 41.9484C63.7333 41.9334 63.693 41.9015 63.6673 41.8586C63.6635 41.835 63.6671 41.8108 63.6779 41.7896C63.6886 41.7683 63.7057 41.751 63.7268 41.7404C64.0753 41.6329 64.4705 41.5598 64.8254 41.4588C64.6831 41.3883 64.5509 41.2986 64.4323 41.1924C64.3898 41.1236 64.4004 41.0269 64.3473 40.9431C64.3124 40.9839 64.2667 41.0137 64.2155 41.029C64.1524 40.9918 64.1009 40.9375 64.0668 40.8722C63.9542 40.6594 63.8437 40.4424 63.7247 40.2361C63.6181 40.5673 63.4733 40.8846 63.2933 41.1816C63.1963 41.2332 63.1142 41.3095 63.0553 41.403L62.7047 41.5534C62.6666 41.6964 62.6131 41.8347 62.5454 41.966C62.6006 42.2282 62.6686 42.5226 62.7302 42.7418C62.8152 42.8256 62.8938 42.9137 62.9767 43.0018C63.3379 43.1759 63.7034 43.3478 64.054 43.5348C64.3898 44.1193 64.8615 44.5212 65.1951 45.1035C65.4926 45.2884 65.8114 45.4388 66.1195 45.6064C66.2239 45.5633 66.3236 45.5092 66.417 45.4452C66.744 45.3164 67.0602 45.1612 67.3626 44.981C67.404 44.9862 67.4427 45.005 67.4726 45.0345C67.5026 45.064 67.5221 45.1026 67.5283 45.1444C67.83 45.3055 68.1148 45.5075 68.4271 45.6666C68.7268 45.8471 69.0369 46.0093 69.3557 46.1522C69.4104 46.1604 69.461 46.186 69.5002 46.2253C69.5087 46.711 69.3664 47.1429 69.3366 47.6243C69.3077 47.6784 69.293 47.7391 69.2941 47.8005C69.4216 47.8199 69.5874 47.7876 69.7085 47.8177C69.7297 47.9295 69.7233 48.0219 69.7446 48.1315C69.8075 48.1866 69.8664 48.2462 69.921 48.3098C69.938 48.7762 69.9486 49.2683 69.9592 49.7153C69.9767 49.8702 69.9767 50.0267 69.9592 50.1816C70.3063 50.4352 70.6569 50.6838 71.0111 50.9273C71.1003 50.8757 71.2002 50.8285 71.2937 50.7769C71.2129 50.3535 71.1449 49.913 71.0663 49.466C71.2427 49.1802 71.4743 48.9309 71.6485 48.6408C71.6167 48.6257 71.5933 48.6021 71.5635 48.5849C71.3012 48.8446 71.0168 49.0805 70.7136 49.2898C70.6331 49.3344 70.5452 49.3635 70.4543 49.3757C70.4089 49.355 70.3672 49.3267 70.3311 49.2919C70.3016 49.2946 70.2718 49.2903 70.2442 49.2795C70.2166 49.2687 70.1918 49.2517 70.1717 49.2296C70.1793 49.1728 70.1983 49.1181 70.2275 49.069C70.2568 49.0198 70.2956 48.9772 70.3417 48.9438C70.4226 48.8679 70.4985 48.7868 70.5691 48.701C70.6171 48.4383 70.7313 48.1925 70.9006 47.9875C70.8623 47.85 70.8156 47.7253 70.7837 47.5792C70.8793 47.4008 70.9834 47.2224 71.0875 47.0484C71.033 47.0122 70.9916 46.9592 70.9694 46.8972C70.9471 46.8352 70.9454 46.7676 70.9643 46.7045C71.042 46.5989 71.1296 46.5011 71.2257 46.4123C71.3015 46.3018 71.3974 46.207 71.5083 46.1329C71.5968 46.1451 71.6816 46.1766 71.7569 46.2253C71.7888 46.2597 71.7973 46.3285 71.827 46.3671C71.9144 46.4176 71.9871 46.4905 72.0378 46.5784C72.0885 46.6663 72.1155 46.7661 72.116 46.8679C72.1014 46.9419 72.0642 47.0095 72.0098 47.0613C71.9977 47.0128 71.972 46.969 71.9358 46.935C71.8996 46.9011 71.8544 46.8785 71.8058 46.87C71.5763 47.0226 71.9481 47.2439 71.9226 47.5212C71.974 47.4884 72.0224 47.451 72.0671 47.4094C72.1467 47.232 72.2675 47.0766 72.4192 46.9565C72.5708 46.8364 72.749 46.7551 72.9384 46.7196C73.1169 46.8421 73.2571 47.0161 73.4356 47.1386C73.4614 47.2787 73.5057 47.4146 73.5673 47.5426C73.6553 47.532 73.7443 47.5364 73.8308 47.5555C73.9413 47.8306 74.0221 48.1401 74.1432 48.3979C74.1081 48.4927 74.0497 48.5767 73.9735 48.6422C73.8972 48.7076 73.8057 48.7523 73.7076 48.7719C73.7663 48.7865 73.8233 48.8074 73.8776 48.8342C73.9644 48.9858 74.0397 49.1438 74.1028 49.307C74.0922 49.3779 74.0433 49.4144 74.0348 49.4875C74.0816 49.8442 74.1134 50.1924 74.1517 50.5448C74.2261 50.6522 74.2983 50.764 74.3663 50.8779C74.3977 51.0609 74.4403 51.2418 74.4938 51.4194C74.6978 51.312 74.8678 51.1788 75.0782 51.0756C75.2758 51.0885 75.4692 51.11 75.6668 51.125C75.7674 51.0577 75.8736 50.9918 75.9855 50.9273C75.9409 50.7704 75.9111 50.5942 75.8729 50.4266C75.9154 50.3084 75.9643 50.1945 76.0004 50.072C75.9933 49.9434 75.9697 49.8163 75.9303 49.6938C75.8601 49.5777 75.7348 49.5326 75.671 49.408C75.7549 49.1512 75.8188 48.8883 75.8623 48.6214C75.9208 48.5659 75.9893 48.5221 76.0641 48.4925C76.0359 48.4683 76.0121 48.4392 75.994 48.4065C76.0638 48.3121 76.1197 48.2078 76.1598 48.0971C76.0936 48.0414 76.0492 47.9637 76.0344 47.8779C75.9571 47.9371 75.8746 47.9889 75.7879 48.0326C75.7071 48.0369 75.6306 48.082 75.5988 48.0154C75.606 47.9746 75.6244 47.9366 75.6519 47.9058C75.7844 47.5929 75.871 47.262 75.909 46.9237C75.9566 46.8014 76.0389 46.696 76.1455 46.6206C76.2521 46.5453 76.3783 46.5035 76.5082 46.5004C76.5621 46.3948 76.63 46.2972 76.7101 46.2103C76.8355 46.1931 76.9864 46.2146 77.1138 46.2017C77.2031 46.1909 77.2498 46.1802 77.3285 46.1716C77.4198 46.163 77.5643 46.0555 77.6132 46.1501C77.5856 46.3199 77.2775 46.3156 77.2605 46.4681C77.3316 46.4495 77.4069 46.4571 77.473 46.4896C77.541 46.683 77.235 46.6573 77.1606 46.769C77.2064 46.8362 77.2576 46.8994 77.3136 46.9581C77.3816 47.0054 77.4326 47.0742 77.5048 47.1171C77.677 47.2388 77.8206 47.3973 77.9256 47.5813C77.911 47.6028 77.8931 47.6217 77.8724 47.6372C77.6316 47.667 77.3873 47.6436 77.1563 47.5684C77.1946 47.951 77.5941 47.8478 77.7513 48.0692C77.7407 48.1015 77.7235 48.1312 77.7008 48.1564C77.6781 48.1816 77.6504 48.2016 77.6196 48.2153C77.7109 48.3894 77.8193 48.5376 77.9086 48.716C77.982 48.7504 78.0506 48.7944 78.1126 48.8471C78.1028 48.8923 78.09 48.9368 78.0743 48.9803C78.3442 49.1888 78.6523 49.35 78.9073 49.5799C78.9038 49.6234 78.8967 49.6665 78.886 49.7088C79.0253 49.8936 79.221 50.0265 79.4428 50.0871C79.6332 49.901 79.7881 49.681 79.8996 49.4381C79.974 49.0233 79.9676 48.5398 80.0186 48.1014L80.0165 48.1035ZM76.793 31.0384C76.9358 30.9749 77.0932 30.9525 77.2477 30.9739C77.3244 30.8648 77.412 30.764 77.5091 30.673C77.6478 30.5858 77.8069 30.5376 77.9702 30.5333C78.1041 30.5871 78.2677 30.6086 78.4015 30.6666C78.4 30.7033 78.3906 30.7392 78.3739 30.7719C78.284 30.8288 78.1821 30.8634 78.0764 30.8729C77.8664 31.0294 77.6642 31.1965 77.4708 31.3736C77.3311 31.3767 77.1918 31.3911 77.0543 31.4166C76.907 31.5065 76.7726 31.6164 76.6549 31.7432C76.6102 31.7454 76.5996 31.7733 76.5486 31.7733C76.5195 31.7423 76.4925 31.7092 76.4679 31.6745C76.5656 31.4488 76.6931 31.2533 76.7951 31.0362L76.793 31.0384ZM74.9167 34.2339C75.059 33.961 75.195 33.6773 75.3289 33.4001C75.3896 33.3321 75.4615 33.2754 75.5414 33.2325C75.662 33.2164 75.7842 33.2164 75.9048 33.2325C76.0854 33.0541 76.2235 32.8435 76.3977 32.6565C76.711 32.6674 77.0201 32.7328 77.3115 32.85C77.3335 32.8418 77.3537 32.8294 77.371 32.8134C77.3979 32.8285 77.4255 32.8421 77.4538 32.8543C77.4733 32.9041 77.4806 32.9579 77.4751 33.0111C77.4233 33.0514 77.3627 33.0787 77.2984 33.0906C77.2341 33.1026 77.1679 33.0989 77.1053 33.0799C77.0369 33.0412 76.9571 33.0282 76.8801 33.0434C76.8185 33.0949 76.7377 33.1336 76.674 33.1831C76.589 33.3571 76.4764 33.5075 76.3807 33.673C76.3066 33.7316 76.2252 33.78 76.1385 33.817C75.9621 33.8106 75.7773 33.817 75.6052 33.7998C75.4827 33.8895 75.3782 34.0018 75.297 34.1308C75.297 34.1308 75.0633 34.4338 75.0187 34.4832C75.0002 34.5049 74.9774 34.5224 74.9518 34.5347C74.9261 34.5469 74.8983 34.5535 74.8699 34.5541C74.8508 34.4187 74.9379 34.3435 74.9188 34.2318L74.9167 34.2339ZM71.1343 43.4531C70.9941 43.4638 70.7943 43.4939 70.6392 43.509C70.6107 43.5199 70.5799 43.5232 70.5498 43.5187C70.5197 43.5142 70.4912 43.502 70.4671 43.4832C70.4628 43.4101 70.5776 43.4252 70.6222 43.3843C70.6923 43.3693 70.7369 43.3328 70.8049 43.3177C70.9058 43.2482 71.0141 43.1905 71.1279 43.1458C71.3488 43.1399 71.5677 43.1023 71.7782 43.0341C71.8412 43.0365 71.9032 43.0511 71.9609 43.077C72.0585 43.0677 72.1567 43.0847 72.2456 43.1265C72.1985 43.1685 72.1414 43.1974 72.0799 43.2103L71.9821 43.2232C71.7442 43.3349 71.3489 43.3263 71.1343 43.4531ZM71.6868 45.0906C71.6045 45.1212 71.5141 45.1212 71.4318 45.0906C71.4684 45.0327 71.5219 44.9877 71.5848 44.9617C71.6443 44.9252 71.6847 44.8779 71.7442 44.8435L71.7675 44.8328C72.0459 44.7962 72.32 44.7683 72.6047 44.721C72.7216 44.7618 72.8279 44.8177 72.9447 44.8586C72.5321 44.9725 72.1126 45.0501 71.6868 45.0906ZM77.2923 43.4789C76.9587 43.5219 76.6081 43.6164 76.2469 43.6336C76.179 43.6149 76.1164 43.5803 76.0641 43.5326C75.8593 43.3076 75.6778 43.0621 75.5223 42.7998C75.4281 42.8318 75.3265 42.8335 75.2313 42.8046C75.1362 42.7758 75.0522 42.7178 74.991 42.6386C75.1102 42.5491 75.244 42.4815 75.3863 42.4388C75.2971 42.132 75.2576 41.8127 75.2694 41.4932C74.907 41.7191 74.6267 42.0576 74.4704 42.4581C74.2933 42.9067 74.2227 43.391 74.2643 43.8722C75.161 43.827 76.0981 43.7282 77.0076 43.6616C77.139 43.6241 77.2748 43.6053 77.4113 43.6057C77.3785 43.6978 77.3165 43.7763 77.235 43.8292C77.1263 43.8758 77.0106 43.9034 76.8929 43.9108C76.7016 43.9194 76.5231 43.8722 76.3404 43.8894C75.8091 43.9345 75.3629 44.1924 74.787 44.2267C74.7137 44.204 74.6436 44.1715 74.5788 44.13C74.4832 44.1171 74.3897 44.1 74.2877 44.0935C73.7654 44.1696 73.2387 44.2105 72.711 44.216C72.6078 44.2264 72.5039 44.2264 72.4008 44.216C72.2989 44.2275 72.196 44.2253 72.0948 44.2096C72.1745 44.1253 72.2787 44.0688 72.3923 44.0484C72.6409 43.9646 72.9171 43.8614 73.1721 43.769C73.2143 43.766 73.2547 43.7509 73.2886 43.7253C73.3225 43.6998 73.3484 43.665 73.3634 43.625C73.3222 43.573 73.2697 43.5314 73.21 43.5034C73.1503 43.4755 73.0849 43.4619 73.0191 43.4639C72.7344 43.4918 72.4199 43.5025 72.1373 43.5283C72.0468 43.5514 71.9524 43.5536 71.861 43.5348C71.8836 43.4899 71.9179 43.4521 71.9603 43.4256C72.0026 43.399 72.0513 43.3848 72.1011 43.3843C72.2988 43.3177 72.5091 43.2468 72.7216 43.1845C72.7732 43.1842 72.8241 43.1726 72.8707 43.1503C72.9173 43.128 72.9586 43.0957 72.9915 43.0555C72.7896 42.9932 72.5028 43.0491 72.3073 42.9825C72.3237 42.8462 72.3521 42.7117 72.3923 42.5806L72.5219 42.428C72.6281 42.1272 72.7344 41.8306 72.8342 41.5298C72.9745 41.3879 73.119 41.2504 73.255 41.1064C73.3846 40.6659 73.5057 40.2167 73.6587 39.7912C73.8207 39.8651 73.9903 39.9206 74.1644 39.9567C74.2293 39.8698 74.2849 39.7761 74.3302 39.6773C74.3727 39.5785 74.4194 38.6028 74.4747 38.5083L74.4874 37.6078H74.5363C74.5894 37.6078 74.6086 38.5104 74.6426 38.5104C74.8508 38.6458 75.0675 39.2024 75.2992 39.2969C75.3927 39.2862 75.4904 39.529 75.569 39.5785C75.9898 40.3263 76.47 41.2547 76.912 42.0434C76.9894 42.1649 77.0535 42.2946 77.1032 42.4302C77.0946 42.5341 77.0537 42.6327 76.9863 42.7117C76.8726 42.7596 76.7741 42.8383 76.7017 42.9391C76.6294 43.04 76.5859 43.1591 76.5762 43.2833C76.8203 43.281 77.0639 43.3047 77.303 43.3543C77.3402 43.3448 77.3792 43.3453 77.4161 43.3559C77.453 43.3664 77.4866 43.3866 77.5133 43.4144C77.4836 43.4875 77.3625 43.4682 77.2945 43.4767L77.2923 43.4789ZM77.7152 40.0727C77.6862 40.0508 77.6598 40.0256 77.6366 39.9975C77.625 39.9139 77.6464 39.829 77.6961 39.7611C77.6411 39.7911 77.5814 39.8115 77.5197 39.8213C77.2413 39.8299 76.9417 39.8686 76.6825 39.8557C76.6286 39.8298 76.5714 39.8117 76.5125 39.802C76.4794 39.7768 76.4543 39.7425 76.4402 39.7031C76.449 39.6409 76.4776 39.5833 76.5217 39.5391C76.5658 39.4948 76.623 39.4664 76.6846 39.4581C76.4509 39.3829 76.0301 39.5591 75.9366 39.3012C75.9716 39.2534 76.0196 39.2168 76.0748 39.1959C76.1331 39.1873 76.1923 39.1851 76.2511 39.1895C76.4997 39.1508 76.8164 39.1121 76.9779 39.0863C77.116 39.0649 77.3433 39.0262 77.6047 38.9896L79.1495 38.7704C78.8871 38.7304 78.6206 38.7254 78.3569 38.7554C78.3167 38.7349 78.2796 38.7088 78.2464 38.678C78.2114 38.6829 78.1757 38.6793 78.1423 38.6673C77.7586 38.765 77.3611 38.7956 76.9672 38.7575C76.932 38.7536 76.8988 38.7393 76.8716 38.7163C76.8444 38.6934 76.8244 38.6629 76.8142 38.6286C76.9403 38.5403 77.0775 38.4695 77.2222 38.418C76.8355 38.418 76.4275 38.5298 76.0216 38.562C75.8686 38.5212 75.9154 38.332 75.9834 38.2461C76.064 38.1727 76.1347 38.0889 76.1937 37.9968C76.4062 37.7604 76.6612 37.5455 76.8907 37.3156C77.0352 37.1544 77.201 37.0126 77.3582 36.86C77.5242 36.7223 77.6831 36.5759 77.8342 36.4216C77.8279 36.1965 77.8596 35.9719 77.9277 35.7575C78.144 35.6616 78.3504 35.5443 78.5439 35.4073C78.4907 35.2618 78.4718 35.1058 78.4887 34.9517C78.6544 34.7626 78.9094 34.6401 79.0943 34.4681C79.3089 34.3177 79.5086 34.1544 79.7211 33.9997C79.6969 33.9366 79.684 33.8696 79.6829 33.802C79.8659 33.4199 80.0965 33.0631 80.3692 32.7404C80.4967 32.5749 80.6455 32.4288 80.773 32.2611C80.8935 32.0902 81.0255 31.9279 81.1682 31.7755C81.1967 31.7559 81.2304 31.7454 81.2649 31.7454C81.2994 31.7454 81.3331 31.7559 81.3616 31.7755C81.3892 32.0312 81.2978 32.259 81.3063 32.5276C81.3758 32.5624 81.4357 32.6141 81.4806 32.678C81.5549 33.2475 81.5634 33.7869 81.6144 34.3414C81.6552 34.3634 81.6919 34.3925 81.7228 34.4273C81.7356 34.5004 81.7526 34.5713 81.7717 34.6401C81.7954 34.6756 81.8224 34.7087 81.8524 34.7389C82.0661 35.3619 82.2108 36.007 82.2838 36.6623C82.3711 36.7874 82.4132 36.9392 82.4028 37.0921C82.5833 37.1415 82.7607 37.2018 82.934 37.2726C83.039 37.2716 83.144 37.2766 83.2485 37.2876C83.3468 37.2729 83.4473 37.2848 83.5396 37.322C83.4761 37.3932 83.3908 37.4409 83.2974 37.4574C83.206 37.4961 83.1125 37.5391 83.0275 37.5692C83.0258 37.6373 83.0068 37.704 82.9723 37.7626C82.7709 37.8182 82.5566 37.8007 82.3667 37.7131C82.2052 37.812 82.0437 37.9065 81.8843 38.0097L80.9068 38.1902C80.8022 38.1975 80.7001 38.2268 80.6072 38.2762C81.1193 38.2611 81.6569 38.216 82.1882 38.1773C82.22 38.1902 82.2817 38.1644 82.2923 38.2053C82.3664 38.1135 82.4642 38.0443 82.5749 38.0054C82.6293 38.0082 82.6807 38.0311 82.7194 38.0699C82.8546 38.1036 82.9874 38.1467 83.1168 38.1988C83.0244 38.2906 82.9135 38.3609 82.7917 38.4051L81.317 38.6394C81.3968 38.7036 81.4979 38.7344 81.5996 38.7253C82.1159 38.6565 82.7109 38.5706 83.2209 38.5126C83.2761 38.5061 83.3611 38.4631 83.3994 38.5298C83.3727 38.5777 83.3367 38.6197 83.2936 38.6533C83.2506 38.6869 83.2013 38.7114 83.1486 38.7253C83.0526 38.7875 82.9499 38.8387 82.8426 38.8779C82.7279 38.8478 82.645 38.7726 82.5345 38.7361C82.5462 38.7911 82.5512 38.8474 82.5494 38.9037C82.4362 38.9895 82.2998 39.0383 82.1584 39.0434C81.9303 39.0621 81.7038 39.0973 81.4806 39.1487C81.3403 39.1487 81.2893 39.0283 81.1512 39.0262C80.875 39.082 80.5477 39.1379 80.28 39.1916C80.1996 39.1345 80.128 39.0657 80.0675 38.9875C80.0222 38.9854 79.977 38.9943 79.9357 39.0133C79.1325 39.1379 78.393 39.2647 77.592 39.3786C77.5601 39.3742 77.5277 39.3771 77.4972 39.3871C77.4666 39.3972 77.4387 39.4141 77.4156 39.4366C77.4921 39.4689 77.6026 39.4581 77.6833 39.4839C78.1317 39.4108 78.6587 39.3464 79.0858 39.2776C79.1558 39.2464 79.2317 39.2313 79.3082 39.2336C79.3847 39.2358 79.4597 39.2552 79.5278 39.2905C79.5703 39.4022 79.4088 39.4302 79.3705 39.4989C79.9697 39.413 80.518 39.3571 81.1257 39.2669C81.164 39.2991 81.2319 39.2926 81.2681 39.3227C81.2774 39.3406 81.2822 39.3605 81.2822 39.3808C81.2822 39.401 81.2774 39.4209 81.2681 39.4388C81.4062 39.428 81.5719 39.4173 81.7207 39.4173C81.8496 39.362 81.9928 39.3506 82.1287 39.3851C81.9994 39.5216 81.8444 39.6307 81.6729 39.7059C81.5015 39.7812 81.3169 39.8212 81.13 39.8235C81.0913 39.7806 81.0461 39.7443 80.9961 39.716C80.4054 39.8664 79.7488 39.9653 79.1177 40.0813C79.0698 40.0571 79.0272 40.0235 78.9923 39.9825C78.6098 39.9502 78.0892 40.0942 77.7152 40.0727ZM79.4321 49.9151C79.4534 49.8915 79.4109 49.9452 79.4321 49.9151ZM62.6474 37.3736C62.6708 37.51 62.7093 37.6434 62.7621 37.7712C62.7557 37.8118 62.7607 37.8535 62.7765 37.8914C62.7922 37.9294 62.8182 37.9622 62.8513 37.9861C62.9665 37.843 63.0576 37.6819 63.1212 37.509C63.2317 37.9689 63.3146 38.3213 63.4251 38.7661C63.5016 38.6888 63.5207 38.5663 63.5951 38.4889L63.8203 38.4588C63.8469 38.238 63.8982 38.021 63.9733 37.812C63.9068 37.7181 63.8298 37.6323 63.7438 37.5563C63.7638 37.4902 63.8069 37.4337 63.8649 37.3972C63.9117 37.4058 63.9712 37.4015 64.0179 37.4101C64.0923 37.3586 64.1284 37.279 64.2028 37.2318C64.2607 37.2856 64.3241 37.3332 64.3919 37.3736C64.3912 37.3226 64.4014 37.272 64.4217 37.2253C64.715 37.0486 64.9917 36.845 65.2483 36.6171C65.2822 36.5658 65.3237 36.5202 65.3715 36.4818C65.402 36.4633 65.434 36.4475 65.4671 36.4345C65.4899 36.3658 65.5268 36.3028 65.5755 36.2497C65.6222 36.2196 65.669 36.2325 65.7136 36.2067C65.7622 36.1523 65.7982 36.0876 65.8188 36.0173C65.8394 35.947 65.8441 35.8729 65.8326 35.8005C65.9219 35.7425 66.0111 35.6823 66.094 35.62C66.1838 35.4246 66.2904 35.2377 66.4127 35.0613C66.4206 35.0685 66.4308 35.0725 66.4414 35.0725C66.452 35.0725 66.4623 35.0685 66.4701 35.0613C66.5147 34.971 66.5848 34.9044 66.6295 34.8163C66.5212 34.6497 66.3756 34.5113 66.2045 34.4123C66.1057 34.3942 66.0099 34.3624 65.9197 34.3177C65.8706 34.3126 65.8235 34.2952 65.7827 34.267C65.7419 34.2389 65.7087 34.2009 65.686 34.1565C65.669 34.0835 65.7731 34.0534 65.8517 34.0147C65.9027 33.9634 65.9657 33.9259 66.0347 33.9057C66.1038 33.8854 66.1768 33.883 66.247 33.8987C66.9595 33.8836 67.6713 33.9535 68.3676 34.1071C68.4545 34.0556 68.5363 33.9959 68.612 33.9288C68.0835 33.6727 67.4878 33.5943 66.9121 33.7053C66.8664 33.7041 66.8215 33.6931 66.7803 33.673C66.7985 33.555 66.8545 33.4463 66.9397 33.3636C67.0044 33.0062 67.0044 32.64 66.9397 32.2826C66.9085 32.2243 66.8829 32.1632 66.8632 32.1C66.9312 31.9173 67.1309 32.0054 67.2776 32.0484C67.8789 32.2267 68.527 32.4352 69.0922 32.5942C69.1772 32.2117 69.258 31.827 69.3324 31.4359C69.2497 31.6173 69.1808 31.8048 69.1262 31.9968C68.9052 32.0957 68.6524 32.1644 68.4186 32.2504C68.231 32.1167 68.0318 32.0002 67.8237 31.9022C67.8079 31.8705 67.7863 31.842 67.7599 31.8184C67.755 31.7882 67.745 31.7592 67.7302 31.7325C67.6573 31.6813 67.5963 31.6145 67.5517 31.5369C67.5687 31.408 67.7153 31.481 67.813 31.4725C67.9332 31.4266 68.0591 31.3977 68.187 31.3865C68.2933 31.322 68.3931 31.2511 68.4973 31.1823C68.5831 31.1001 68.6731 31.0227 68.7671 30.9502C68.8265 30.9455 68.8861 30.9574 68.9393 30.9846C68.9878 30.9192 69.0291 30.8486 69.0625 30.774C69.2606 30.6164 69.4718 30.4762 69.6936 30.355C69.7327 30.3051 69.7874 30.2702 69.8487 30.2561C69.9762 30.2969 69.8955 30.4624 69.8721 30.5398C69.7658 30.832 69.7403 31.1823 69.6532 31.4853C69.5427 31.9001 69.4662 32.3406 69.377 32.7661C69.4223 32.8098 69.4793 32.8389 69.5409 32.85C69.6025 32.8611 69.6659 32.8536 69.7234 32.8285C69.7527 32.8787 69.792 32.9222 69.8388 32.9562C69.8856 32.9902 69.9389 33.0141 69.9953 33.0262C70.0166 32.8843 70.0442 32.7468 70.0612 32.6028C70.3141 32.3901 70.6031 32.2074 70.8602 32.0011C70.8571 31.9446 70.8571 31.8879 70.8602 31.8313C71.0429 31.61 71.2639 31.4209 71.4467 31.1995C71.4249 31.0678 71.4264 30.9332 71.4509 30.802C71.5802 30.5821 71.7679 30.4034 71.9928 30.2862C72.1686 30.2757 72.3386 30.2188 72.4859 30.1212C72.6332 30.0235 72.7525 29.8885 72.8321 29.7296C72.7854 29.4846 72.6536 29.2053 72.6324 28.9646C72.8617 28.9898 73.0937 28.9678 73.3145 28.9001C73.3788 28.8429 73.4478 28.7911 73.5206 28.7454C73.6459 28.8506 73.7987 28.9171 73.9605 28.9366C74.0751 28.8773 74.1759 28.7938 74.2558 28.6916C74.3621 28.5971 74.4534 28.509 74.5321 28.4338C74.5236 28.3263 74.5363 28.2339 74.5321 28.1286C74.7849 27.9459 75.127 27.7955 75.3417 27.6086C75.3824 27.372 75.4682 27.1457 75.5945 26.9424C75.6002 26.8731 75.6159 26.805 75.6413 26.7404C75.7787 26.6289 75.9302 26.5363 76.0918 26.4653C76.5104 26.4051 76.9332 26.3449 77.3008 26.302C77.3646 26.3922 77.4283 26.4825 77.4985 26.5684C77.5495 26.4868 77.5898 26.3965 77.6472 26.3192C77.6724 26.1998 77.7161 26.0851 77.7768 25.9796C78.0216 26.072 78.2884 26.087 78.5418 26.0226C78.6379 26.0497 78.7306 26.0879 78.818 26.1365C78.9391 26.1412 79.0596 26.1184 79.1708 26.0699C79.5422 26.1642 79.9227 26.2175 80.3055 26.2289C79.6566 25.829 78.9838 25.4702 78.2911 25.1544C77.8724 25.1102 77.458 25.0311 77.0522 24.918C76.6655 24.86 76.2873 24.7697 75.9005 24.6988C75.5138 24.6279 75.1015 24.6171 74.6978 24.5484C74.3639 24.4151 74.0136 24.3283 73.6566 24.2905L73.6353 24.3012C73.2279 24.3472 72.825 24.427 72.4305 24.5398C72.0438 24.6472 71.6592 24.7117 71.2873 24.8106C70.5558 24.9924 69.8395 25.2324 69.1454 25.5283C69.0998 25.5422 69.0537 25.5544 69.0072 25.5649C68.9253 25.6874 68.881 25.8317 68.8798 25.9796C68.6045 26.1522 68.3208 26.3107 68.0298 26.4545C67.8566 26.4223 67.681 26.4051 67.5049 26.403C67.4339 26.4358 67.3668 26.4769 67.3052 26.5255C66.8421 26.8098 66.3958 27.1212 65.9686 27.4581C65.7242 27.6365 65.4799 27.8277 65.2398 28.0169C64.9896 28.1878 64.76 28.3876 64.5555 28.6121C64.5168 28.715 64.4981 28.8244 64.5003 28.9345C64.3303 29.2719 64.1051 29.5684 63.9372 29.908C63.8341 30.0666 63.7452 30.2341 63.6716 30.4087C63.5599 30.5611 63.4638 30.7245 63.3847 30.8965C63.5058 30.9352 63.6227 30.9825 63.7481 31.0147C63.7903 30.9039 63.843 30.7974 63.9053 30.6967C64.105 30.6709 64.292 30.658 64.496 30.63C64.6208 30.5036 64.6982 30.3372 64.7149 30.1594C64.7589 30.0668 64.8262 29.9877 64.9102 29.9299C64.9942 29.8722 65.0917 29.8379 65.193 29.8306C65.1924 29.7529 65.211 29.6763 65.2469 29.6076C65.2829 29.539 65.3352 29.4805 65.3991 29.4373C65.7317 29.3326 66.0883 29.3356 66.4191 29.4459C66.6805 29.4202 66.9333 29.403 67.1926 29.3772C67.4029 29.2481 67.5857 29.0778 67.7302 28.8765C67.7947 28.8257 67.872 28.7944 67.9533 28.7862C68.002 28.7987 68.0518 28.8059 68.102 28.8077C68.2717 28.6755 68.4251 28.5233 68.5589 28.3543C68.6867 28.3691 68.8136 28.3906 68.9393 28.4187C69.4662 28.2253 70.0485 28.004 70.6307 27.8492C70.6689 27.8272 70.7121 27.8156 70.7561 27.8156C70.8 27.8156 70.8432 27.8272 70.8814 27.8492C70.8488 27.8773 70.8113 27.8991 70.7709 27.9137C70.7245 27.9303 70.6791 27.9497 70.6349 27.9717C70.3885 28.0942 70.1292 28.206 69.8763 28.3242C69.5364 28.4767 69.207 28.6379 68.8628 28.7884C68.6588 28.9667 68.4186 29.1043 68.2019 29.2611C68.135 29.3219 68.064 29.3779 67.9894 29.4288C67.7553 29.4975 67.5145 29.54 67.2712 29.5555C66.7973 29.8113 66.315 30.0606 65.8369 30.3163C65.6987 30.4581 65.5946 30.6279 65.4438 30.7611C65.2716 30.8299 65.0825 30.8836 64.9061 30.9481C64.3685 31.4101 63.8501 31.8894 63.3082 32.3471C63.2432 32.3434 63.1782 32.3529 63.117 32.375C63.0808 32.4094 63.0851 32.476 63.0532 32.5104C62.8258 32.678 62.7026 32.9252 62.4944 33.1057C62.4673 33.3297 62.4283 33.5521 62.3775 33.7719C62.2412 33.9945 62.1448 34.2396 62.0927 34.4961C62.2834 35.2217 62.5248 35.9327 62.8152 36.6236C62.7418 36.8693 62.6857 37.1199 62.6474 37.3736ZM62.7578 37.249C62.7706 37.279 62.7621 37.2146 62.7578 37.249ZM77.7407 36.8406C77.6854 36.8406 77.6238 37.2855 77.558 37.2919C77.6068 37.2124 77.6685 37.3306 77.7364 37.2661C77.9404 37.0641 78.1253 36.9438 78.3442 36.7504C78.631 36.7504 78.9285 36.7912 79.2111 36.802C79.2359 36.7461 79.2749 36.6979 79.3242 36.6624C79.3735 36.6269 79.4313 36.6053 79.4916 36.6C79.5086 36.3313 79.5256 36.0735 79.5469 35.8091C79.5558 35.7679 79.5762 35.73 79.6055 35.7C79.6348 35.67 79.672 35.6489 79.7126 35.6394C80.1397 35.3836 80.5392 35.2203 80.9918 34.9796L81.0131 34.9689C81.0365 34.9603 81.0343 34.9861 81.0492 34.9839C81.0467 35.0117 81.0369 35.0383 81.0208 35.0609C81.0048 35.0836 80.983 35.1015 80.9578 35.1128C80.8388 35.2203 80.7007 35.3449 80.5753 35.4481C80.4153 35.6057 80.2481 35.7561 80.0739 35.8994C80.0144 36.3636 79.8869 36.774 79.8614 37.264C79.8502 37.296 79.8328 37.3255 79.8102 37.3506C79.7875 37.3757 79.7601 37.3959 79.7296 37.4101C79.6978 37.4144 79.6638 37.0341 79.6298 37.0319C79.0154 36.8562 78.3751 36.7922 77.7386 36.8428L77.7407 36.8406ZM122.271 13.9689L121.81 14.3149L121.822 14.5298L123.718 13.0427L124.95 13.1071L125.541 12.3055C125.541 12.3055 125.889 12.2776 126.142 12.2282C126.395 12.2111 126.646 12.1773 126.894 12.1272C127.279 12.0562 127.667 12.0095 128.057 11.9875C128.057 11.9875 128.167 11.9853 128.108 12.5011L127.953 13.8227L127.464 15.3485L127.305 15.6537C127.074 15.7006 126.84 15.7243 126.606 15.7246C125.751 15.6902 124.895 14.8048 124.041 14.8714C123.484 14.8843 122.368 13.9689 122.266 13.9689H122.271ZM139.072 20.4159C138.987 20.4159 138.824 22.7733 138.588 23.6759C138.409 24.4494 138.298 25.2377 138.259 26.0312C138.252 26.173 138.233 26.7361 138.182 27.2368C138.154 27.5269 138.101 27.8836 138.074 28.2017C138.024 28.7008 138.016 29.2033 138.05 29.7038C138.046 29.7962 138.016 29.9767 138.012 30.0692C138.008 30.1852 137.842 30.4237 137.838 30.5398C137.827 30.759 137.876 31.1222 137.865 31.3285C137.795 32.822 137.872 33.9588 137.865 34.8915C137.815 36.8739 137.874 38.8577 138.042 40.8335C138.063 41.1279 138.125 41.4094 138.159 41.7597C138.193 42.1487 138.297 42.5054 138.339 42.9373C138.454 44.0892 138.62 45.413 138.686 46.6336C138.786 47.9591 138.749 49.2916 138.575 50.6093C138.533 50.8865 138.477 51.2131 138.403 51.5699C138.361 51.7719 138.218 52.0147 138.176 52.2361C138.006 53.2287 137.666 54.1836 137.171 55.0577C137.067 55.2089 136.951 55.3512 136.824 55.4832C136.651 55.6921 136.451 55.877 136.229 56.0333C136.229 56.0333 136.268 55.4209 136.236 54.6945C136.197 53.8349 136.036 52.8163 136.015 52.61C135.955 51.9674 135.84 51.4732 135.998 51.2217C136.155 50.9703 136.397 50.8521 136.438 50.7318C136.278 50.7454 136.117 50.718 135.97 50.6522C135.658 49.9707 135.458 49.2417 135.379 48.4947C135.316 48.1379 135.269 47.6415 135.214 47.2568C135.069 46.1813 134.953 45.1021 134.865 44.0204C134.776 42.9631 134.608 41.6995 134.551 40.3392C134.519 39.5505 134.606 37.9882 134.633 36.4925C134.642 35.9316 134.623 35.2117 134.585 34.3779C134.559 33.8514 134.497 33.3378 134.474 32.8886C134.444 32.2848 134.572 31.8356 134.546 31.3586C134.519 30.7934 134.41 30.2346 134.383 29.8199C134.399 29.0254 134.284 28.2337 134.043 27.4775C133.937 27.327 133.503 27.774 133.382 28.1007C133.352 28.1823 133.118 28.5197 132.823 29.1043C132.666 29.4159 132.515 29.8414 132.315 30.2432C132.147 30.5806 132.001 30.9932 131.82 31.3693C131.506 32.0097 131.363 32.115 131.051 32.8091C130.372 34.4876 129.858 36.2295 129.517 38.0097C129.517 38.0097 130.575 34.7454 130.809 34.3091C130.608 34.8641 130.438 35.4293 130.297 36.0025C130.169 36.5355 130.122 37.2339 129.965 37.9194C129.831 38.504 129.629 39.1551 129.508 39.7117C129.274 40.7905 129.206 41.5169 129.104 42.2776C129.051 42.6227 128.969 42.9626 128.86 43.2941C128.762 43.6573 128.643 44.2289 128.526 44.5319C128.339 45.0626 128.123 45.5827 127.88 46.0899C127.83 46.2053 127.749 46.304 127.646 46.3747C127.543 46.4454 127.423 46.4852 127.298 46.4896C127.175 46.2532 126.795 46.4574 126.663 46.4402C126.542 46.4602 126.428 46.5141 126.335 46.5957C126.243 46.6773 126.174 46.7835 126.138 46.9022C126.036 47.0849 125.862 47.2418 125.783 47.3707C125.705 47.4997 125.647 47.6608 125.598 47.7253C125.218 47.9199 124.822 48.0782 124.413 48.1981C124.084 48.3023 123.767 48.4428 123.469 48.6171C123.203 48.8191 123.125 48.4861 123.095 48.3378C123.065 48.1895 123.199 46.1136 123.095 45.961C123.006 45.8574 122.949 45.7298 122.931 45.5939C122.913 45.4579 122.934 45.3196 122.993 45.1959C123.317 44.8548 123.614 44.4875 123.879 44.0978C124.022 43.8851 124.138 43.769 124.277 43.5348C124.353 43.4037 124.404 43.1802 124.476 43.0469C124.795 42.4452 125.22 41.5813 125.456 41.1064L124.846 41.9037L123.699 43.5477C123.668 43.3795 123.651 43.2092 123.645 43.0384C123.645 42.8643 123.667 42.3012 123.65 41.6866C123.637 41.2353 123.541 40.6873 123.522 40.3908C123.467 39.6432 123.468 38.8924 123.526 38.1451C123.567 37.8055 123.677 37.7045 123.747 37.1415C123.833 36.6001 123.87 36.0521 123.86 35.504C123.852 35.2224 123.779 34.9237 123.752 34.6551C123.749 34.469 123.736 34.2832 123.713 34.0985C123.384 32.3946 123.307 30.6505 123.486 28.9237L123.225 30.0713C123.225 30.0713 123.193 29.3106 123.186 28.2726C123.186 27.875 123.212 27.3636 123.21 26.9445C123.208 25.8421 123.15 24.6086 123.155 24.2733C123.163 23.6995 123.065 23.418 123.223 23.201C123.331 23.0852 123.467 22.9994 123.618 22.9517C123.756 22.6572 123.798 22.3263 123.739 22.0061C123.571 21.786 123.459 21.5278 123.412 21.254C123.331 21.0561 123.277 20.8478 123.252 20.6351C123.252 20.6351 125.256 20.5104 125.645 20.4524L126.232 20.5126L126.765 20.4137L126.555 21.7568C126.555 21.7568 126.463 23.3041 126.391 25.1308C126.365 25.7475 126.253 26.5061 126.236 27.1379C126.219 27.7353 126.272 28.221 126.291 28.7217C126.312 29.3084 126.306 29.8822 126.334 30.2776C126.38 30.8707 126.363 31.5154 126.402 31.9839C126.504 33.2776 126.631 33.9481 126.631 33.9481C126.632 34.0958 126.674 34.2403 126.752 34.365C126.972 34.1446 127.15 33.8853 127.277 33.6C127.652 32.7672 128.086 31.9629 128.575 31.1931C128.524 31.3656 128.481 31.5406 128.448 31.7174C128.401 31.9495 128.382 32.2117 128.32 32.4502C128.283 32.6045 128.233 32.7554 128.172 32.9015C128.099 33.0563 128.121 33.2389 128.029 33.4388C127.953 33.6021 127.757 33.8428 127.655 34.0147C127.59 34.1172 127.541 34.2297 127.511 34.3478C127.748 34.062 127.97 33.7636 128.176 33.4538C128.248 33.3421 128.261 33.2196 128.331 33.1014C128.386 33.009 128.497 32.923 128.548 32.8263C128.685 32.6125 128.791 32.3793 128.862 32.1343C129.012 31.3914 129.322 30.6912 129.772 30.0842L130.594 28.7733C130.828 28.3951 130.832 28.1931 131.098 27.7568C131.342 27.3593 131.654 27.0047 131.916 26.5964C132.421 25.8231 132.887 25.024 133.312 24.2024C133.186 24.8619 132.956 25.4968 132.632 26.0828C132.407 26.4408 132.231 26.8274 132.107 27.2325C132.107 27.2325 132.349 26.9037 132.638 26.4868C132.73 26.3492 132.857 26.0849 132.953 25.9388C133.183 25.632 133.386 25.3048 133.558 24.961C133.806 24.3499 133.99 23.7138 134.104 23.0634C134.244 22.3667 134.608 21.7363 135.139 21.2712C135.293 21.2033 135.458 21.1689 135.626 21.1702C136.48 20.9832 137.844 20.7876 137.844 20.7876C137.941 20.8436 138.014 20.9329 138.05 21.0391C138.116 21.0496 138.184 21.0467 138.249 21.0305C138.314 21.0142 138.375 20.985 138.429 20.9445C138.677 20.7382 138.994 19.8012 139.106 19.7303C139.219 19.6594 139.136 20.4159 139.068 20.4159H139.072ZM147.753 47.3815C147.686 47.2881 147.612 47.2004 147.532 47.1193C147.311 46.8313 147.213 46.6594 146.979 46.3843C146.526 45.8291 146.138 45.2226 145.823 44.577C145.548 44.0394 145.309 43.4837 145.107 42.9137C145.063 42.7934 145.065 42.6193 145.014 42.456C144.844 41.8133 144.797 41.1437 144.876 40.4832C144.868 40.4137 144.856 40.3448 144.84 40.2769C144.84 40.1028 144.806 39.9803 144.806 39.817C144.806 39.6537 144.848 39.4474 144.85 39.3012C144.865 38.7253 144.893 38.3235 144.893 38.3235L144.653 38.8693L144.472 39.1637L144.387 39.4861C144.417 38.8352 144.561 38.1949 144.812 37.5949C144.865 37.1867 144.946 36.7825 145.052 36.3851C145.099 36.1852 145.101 35.923 145.162 35.7017C145.891 33.1358 147.317 29.1902 147.436 28.8679C147.638 28.3091 147.513 28.4123 147.513 28.4123C147.419 28.2997 147.335 28.1789 147.262 28.0512C147.198 27.9395 147.151 27.7654 147.071 27.6279C146.926 27.3808 146.818 27.1035 146.686 26.8693C146.531 26.6007 146.355 26.3858 146.312 26.3084C146.236 26.1666 146.274 26.1236 146.078 26.1214C145.88 26.1409 145.684 26.1812 145.494 26.2418C145.309 26.2952 145.117 26.3206 144.925 26.317C144.566 26.3213 144.214 26.2165 143.915 26.0161C143.805 25.9151 143.679 25.855 143.575 25.7669C143.485 25.6636 143.372 25.5833 143.246 25.5326C143.114 25.5637 142.992 25.6263 142.889 25.7153C142.619 25.8822 142.331 26.0171 142.03 26.1171C141.888 26.6651 142.3 27.0627 142.228 27.8256C142.179 28.3263 141.794 30.5484 141.378 32.8607C141.285 33.4228 141.221 33.9895 141.187 34.5584C141.159 34.9538 141.07 35.4223 141.053 35.8371C141.036 36.2518 141.091 36.6171 141.078 37.0341C141.061 37.6358 141.125 38.2547 141.102 38.7962C141.083 39.2626 140.981 39.6644 140.947 40.0341C140.917 40.435 140.961 40.8381 141.078 41.2224C141.113 41.493 141.192 41.7559 141.312 42.0004C141.525 42.2809 141.76 42.5433 142.015 42.7848C142.053 42.8295 142.087 42.8769 142.117 42.9266C142.136 42.9465 142.153 42.9673 142.168 42.9889C142.197 43.0262 142.218 43.0691 142.23 43.115C142.242 43.1608 142.244 43.2086 142.236 43.2554L141.816 44.1064C141.813 44.2276 141.836 44.3479 141.881 44.46C141.927 44.572 141.995 44.6733 142.081 44.7575C142.68 45.4397 143.215 46.1764 143.679 46.9581C144.127 47.0511 144.561 47.1983 144.973 47.3965C145.379 47.5749 145.634 47.7404 145.859 47.8414C146.023 47.9187 146.21 47.9638 146.465 48.0949C146.601 48.168 146.758 48.3034 146.958 48.4044C146.958 48.4044 147.164 48.3528 147.432 48.2926C147.497 48.2966 147.563 48.2845 147.623 48.2576C147.683 48.2307 147.735 48.1897 147.776 48.1379C147.876 47.9824 147.912 47.7931 147.874 47.6114C147.85 47.5271 147.808 47.4488 147.753 47.3815ZM143.042 28.9947C143.077 29.6666 143.005 30.3399 142.829 30.9889C142.755 31.1802 142.562 31.5756 142.432 31.913C142.377 32.0634 142.392 32.13 142.332 32.2848C142.209 32.5601 142.102 32.8421 142.009 33.1293C141.943 33.296 141.888 33.4668 141.843 33.6408C141.712 34.5176 141.624 35.1881 141.624 35.1881C141.632 34.6054 141.671 34.0236 141.741 33.4452C141.788 33.1551 141.882 32.8048 141.943 32.4889C142.013 32.1451 142.092 31.7991 142.168 31.481C142.236 31.2124 142.328 31.0792 142.389 30.8514C142.479 30.514 142.504 30.1852 142.566 30.0262C142.684 29.7748 142.753 29.5025 142.768 29.2246C142.839 28.7554 142.874 28.2811 142.872 27.8063C142.829 27.4065 142.808 27.0434 142.808 27.0434C142.873 27.1899 142.927 27.3406 142.972 27.4947C143.044 27.9911 143.068 28.4935 143.042 28.9947ZM159.242 29.3729C159.191 29.2867 159.11 29.2225 159.015 29.1924C158.951 29.1992 158.887 29.1869 158.831 29.1571C158.774 29.1273 158.727 29.0813 158.696 29.0247C158.664 28.9173 158.577 28.6659 158.545 28.5025C158.49 28.2146 158.49 27.9782 158.422 27.7289C158.381 27.6127 158.318 27.5055 158.237 27.413C158.033 27.0971 157.821 26.6608 157.761 26.6329C157.559 26.6307 157.358 26.6091 157.16 26.5684C156.992 26.4967 156.827 26.4163 156.667 26.3278L156.157 26.5856C156.157 26.5856 155.634 26.9381 155.358 27.1164C155.043 27.3206 154.487 27.9975 153.934 28.3822C153.296 28.7454 152.677 29.1428 152.081 29.5727C151.648 29.9237 151.285 30.3547 151.01 30.8428C150.804 31.2769 150.5 31.9173 150.205 32.648C150.126 32.8457 150.056 33.1207 149.986 33.3055C149.916 33.4904 149.839 33.6064 149.782 33.7719C149.692 34.0151 149.625 34.2662 149.58 34.5219L149.944 34.5606C150.009 34.5894 150.068 34.6336 150.114 34.6895C149.999 34.754 149.718 34.7346 149.65 34.7969C149.441 35.0536 149.299 35.3597 149.238 35.6866C149.162 36.1466 149.137 36.6136 149.162 37.0792C149.121 37.6708 149.171 38.2652 149.31 38.8414C149.438 39.3542 149.503 39.8812 149.502 40.4101C149.563 41.3229 149.745 42.2234 150.041 43.0878C150.715 44.7919 151.004 45.0305 151.505 45.3872C152.279 45.9309 152.704 47.1988 154.251 47.36C154.922 47.4943 155.607 47.5448 156.291 47.5104C156.437 47.4301 156.557 47.3093 156.637 47.1623C156.793 47.0191 156.976 46.9095 157.175 46.8399C157.338 46.8501 157.494 46.9084 157.625 47.0075C157.808 47.0935 157.884 46.9409 158.452 46.7067C158.766 46.5734 159.31 46.3199 159.323 46.3091C159.464 46.1942 159.582 46.0535 159.671 45.8944C159.745 45.7973 159.824 45.7041 159.907 45.615C159.941 45.5566 159.966 45.4936 159.982 45.428C160.049 45.3167 160.11 45.202 160.164 45.0842C160.5 44.375 160.283 44.3277 159.878 44.5641C159.685 44.6905 159.48 44.7964 159.266 44.88C159.123 44.8979 158.979 44.9001 158.836 44.8865C158.52 44.9141 158.201 44.8996 157.889 44.8435C157.465 44.7353 157.035 44.6563 156.601 44.6071C156.232 44.4958 155.88 44.3369 155.551 44.1343C155.267 43.9925 155.014 43.8829 155.014 43.8829C154.725 43.8697 154.446 43.7702 154.213 43.5971L154.956 43.4832C154.827 43.335 154.688 43.1964 154.54 43.0684C154.47 43.004 154.461 42.8879 154.376 42.7869C154.259 42.6867 154.147 42.5806 154.04 42.4689C153.916 42.2526 153.814 42.0244 153.734 41.7876C153.677 41.5832 153.634 41.375 153.605 41.1644C153.527 40.9314 153.482 40.6882 153.473 40.4424C153.439 40.1896 153.459 39.9325 153.531 39.6881C153.603 39.4436 153.725 39.2173 153.89 39.024C154.298 38.5922 154.836 38.3082 155.42 38.216C156.042 38.0591 156.512 38.0785 157.058 37.9194C157.326 37.8146 157.584 37.6851 157.829 37.5326C158.17 37.3549 158.493 37.144 158.794 36.903C159.194 36.5232 159.625 36.1775 160.082 35.8693L160.375 34.4316C160.464 33.9825 160.723 32.5835 160.708 32.418C160.578 32.0741 160.422 31.7408 160.241 31.4209L159.242 29.3729ZM157.634 33.1465C157.565 32.7025 157.442 32.2687 157.268 31.855C157.011 32.4405 156.83 33.0574 156.731 33.6902C156.693 33.9138 156.678 34.1406 156.686 34.3671C156.729 34.5177 156.732 34.6771 156.694 34.8292C156.652 34.9704 156.598 35.1077 156.533 35.2396C156.166 35.5703 155.738 35.8232 155.273 35.9832C154.892 36.1165 154.487 36.1628 154.087 36.1186C154.059 36.1191 154.032 36.1253 154.006 36.1366C153.981 36.1479 153.958 36.1642 153.938 36.1845C153.919 36.2049 153.904 36.2289 153.893 36.2552C153.883 36.2815 153.878 36.3096 153.879 36.3378L153.794 37.3521C153.677 37.1569 153.64 36.9231 153.692 36.701C153.654 36.0987 153.704 35.4941 153.841 34.9065C153.9 34.6916 154.043 34.2941 154.104 34.0663C154.166 33.8385 154.096 33.7182 154.164 33.4925C154.385 32.7747 154.618 32.0097 154.863 31.408C155.012 30.9101 155.269 30.452 155.615 30.067C155.955 29.6866 156.937 30.7826 157.374 31.3886C157.428 31.4533 157.49 31.511 157.557 31.5606C157.587 31.6263 157.614 31.6937 157.636 31.7626C157.68 31.8159 157.711 31.8786 157.728 31.946C157.744 32.0133 157.746 32.0836 157.731 32.1515C157.738 32.3783 157.759 32.6045 157.795 32.8285L157.765 33.1078L157.821 33.2626L157.634 33.1465ZM176.558 29.5341L177.013 30.1487C177.013 30.1487 176.924 30.7697 176.679 31.8141C176.523 32.6392 176.13 33.3994 175.549 33.9997C175.196 34.2318 174.697 34.1007 174.593 34.1974C174.489 34.2941 174.667 34.3843 174.648 34.5627C174.642 34.6272 174.567 34.7561 174.478 35.0247C174.339 35.9821 174.125 36.9269 173.84 37.8507C173.586 38.6152 173.383 39.3963 173.233 40.1888C173.19 40.3607 173.218 40.5176 173.188 40.6487C173.162 40.7883 173.083 40.912 172.967 40.9925C172.449 41.185 171.998 41.5264 171.669 41.9746C171.09 42.735 170.551 43.5247 170.052 44.3406C169.81 44.7296 169.627 45.0563 169.414 45.3571C169.278 45.5505 169.113 45.5677 169.011 45.7117C168.335 46.668 168.286 46.7217 167.884 46.7604C167.791 46.7712 167.882 46.8722 167.882 46.8722C168.547 47.1795 169.068 46.3779 169.068 46.3779L169.051 46.7561C168.612 47.1129 168.212 47.5155 167.857 47.9574C167.642 48.1379 167.175 47.7898 166.807 47.3535C166.506 46.9709 166.245 46.5575 166.029 46.12C165.864 45.8127 165.732 45.2862 165.502 44.7296C165.485 44.6029 165.478 44.475 165.481 44.3471C165.415 44.0618 165.332 43.7805 165.235 43.5047C165.077 43.1286 164.973 43.4767 164.633 42.9373C164.557 42.817 163.764 39.1465 163.252 36.1594C163.146 35.5491 163.076 34.9603 163.012 34.4767C162.947 33.8076 162.919 33.1354 162.929 32.4631C162.909 32.053 162.843 31.6464 162.734 31.2511C162.602 30.7117 162.228 29.5104 162.075 28.87C161.879 28.0856 161.342 27.0584 161.301 26.8586C161.28 26.7019 161.277 26.5431 161.293 26.3858L163.137 26.5534L163.413 26.8457C163.513 26.9467 163.624 27.0391 163.537 27.125C163.412 27.2398 163.277 27.3426 163.133 27.4323L162.846 27.673C163.18 27.5844 163.508 27.4731 163.828 27.3399C164.032 27.1832 164.278 27.0919 164.533 27.0778C164.877 27.2462 165.176 27.4943 165.407 27.802C165.492 28.0126 165.616 28.2051 165.772 28.3693C165.934 28.4982 166.142 28.6143 166.371 28.7733C166.533 28.8891 166.68 29.0256 166.807 29.1795L166.79 29.8027L166.73 30.4968C166.73 30.4968 166.624 30.5699 166.59 30.6C166.38 30.7639 166.218 30.9832 166.123 31.2339C166.092 31.4187 166.09 31.6074 166.119 31.7926C166.125 32.0075 166.053 32.3278 166.08 32.5448C166.134 32.8149 166.207 33.0807 166.299 33.3399L166.558 34.7991C166.558 34.7991 166.503 34.2597 166.501 33.7547C166.507 33.5063 166.496 33.2578 166.467 33.0111C166.358 32.4751 166.41 31.9183 166.616 31.4123C166.612 31.524 166.658 32.0247 166.692 32.5598C166.705 32.7533 166.786 32.9037 166.815 33.0971C166.819 33.307 166.834 33.5165 166.862 33.7246C167.03 34.4231 167.132 35.1362 167.166 35.8543C167.238 36.499 167.336 36.7998 167.427 37.4488C167.512 38.0527 167.423 38.4631 167.476 39.6322C167.408 39.5204 166.809 38.4567 166.809 38.4567C166.895 38.9192 167.038 39.3689 167.234 39.7955C167.246 39.8911 167.246 39.9879 167.234 40.0835C167.362 40.3166 167.528 40.526 167.725 40.7024C167.759 40.7088 167.808 40.6207 167.846 40.625C167.993 40.6401 168.11 40.6895 168.258 40.7045C168.379 40.706 168.5 40.7168 168.62 40.7368C168.787 40.779 168.946 40.8526 169.087 40.9538C168.937 40.7794 168.761 40.6287 168.566 40.5068C168.374 40.5156 168.182 40.4938 167.997 40.4424C168.096 40.206 168.211 39.9769 168.341 39.7568C168.45 39.499 168.526 39.1508 168.671 38.7382C169.25 37.4997 169.91 36.3015 170.647 35.1515C171.297 33.7661 171.852 32.3372 172.308 30.875C172.386 30.6432 172.433 30.4018 172.447 30.1573C172.421 29.8843 172.336 29.5856 172.325 29.3363C172.362 29.1088 172.365 28.8771 172.334 28.6487C172.077 27.8707 171.764 27.1959 171.69 26.9123C171.628 26.6847 171.58 26.4536 171.546 26.2203L171.733 26.0527C171.814 25.9649 171.912 25.8947 172.022 25.8464C172.108 25.8259 172.199 25.8277 172.284 25.8518C172.37 25.8758 172.449 25.9212 172.512 25.9839C172.656 26.0855 172.807 26.1754 172.965 26.2525C173.071 26.3084 173.182 26.3858 173.299 26.4416C173.401 26.4911 173.507 26.519 173.609 26.5663C174.057 26.7726 174.461 26.9424 174.461 26.9424C174.502 27.23 174.566 27.5139 174.652 27.7912C174.662 27.8531 174.685 27.912 174.719 27.964C174.754 28.0159 174.799 28.0596 174.852 28.092C174.906 28.1243 174.965 28.1445 175.026 28.1512C175.088 28.1579 175.15 28.1509 175.209 28.1308C175.353 28.0677 175.487 27.9845 175.608 27.8836L176.084 28.6508L176.558 29.5341ZM219.992 18.1809C219.992 18.211 217.782 18.1938 215.863 18.2969C215.272 18.3292 215.3 18.2755 214.609 18.2733C214.284 18.2733 213.921 18.2626 213.581 18.2948C213.24 18.3011 212.899 18.2817 212.561 18.2368C212.149 18.2368 211.741 18.3227 211.309 18.3206C210.94 18.3206 210.325 18.1616 210.109 18.153C208.566 18.0906 206.921 18.1014 205.27 18.067C204.603 18.0541 203.893 18.1272 203.22 18.1186C202.795 18.1121 202.149 18.1487 201.726 18.1422C201.45 18.1379 201.28 18.0799 201.003 18.0778C200.71 18.0735 200.272 18.0885 199.983 18.0842C199.32 18.0756 198.609 17.9381 197.975 17.9338C197.291 17.9252 196.69 18.0498 196.046 18.0412C194.597 18.0305 193.598 18.0154 192.975 18.0197C192.623 18.0197 192.268 18.052 191.939 18.052C191.618 18.052 191.229 18.0133 190.94 18.0133C190.277 18.0133 189.654 18.0992 189.185 18.0971C188.735 18.1057 188.288 18.1626 187.85 18.2669H187.82C187.287 18.2669 186.741 17.9402 186.191 17.923C185.653 17.9553 181.312 18.0176 181.312 18.0176L181.222 17.9316C181.208 17.9746 181.197 17.981 181.197 17.981C180.336 18.0348 179.03 18.1702 178.245 18.125C176.694 18.0348 175.062 18.1401 174.85 18.1315C174.614 18.1385 174.383 18.205 174.178 18.3249C173.424 18.3488 172.669 18.3171 171.92 18.2303C171.701 18.2217 171.497 18.0906 171.203 18.0434C170.85 18.0524 170.501 18.1275 170.175 18.2647C169.663 18.411 169.165 18.6038 168.688 18.8406C168.406 19.0012 168.104 19.1199 167.789 19.1931C167.789 19.1931 165.813 19.1673 165.405 19.178C165.312 19.2214 165.222 19.2717 165.137 19.3285C164.962 19.3321 164.788 19.3256 164.614 19.3091C164.499 19.2625 164.389 19.2034 164.287 19.1329C163.961 18.9096 163.622 18.7051 163.273 18.5204C163.214 18.4861 163.154 18.4517 163.178 18.4022C163.271 18.2918 163.378 18.1942 163.496 18.1121C163.582 18.0354 163.661 17.9512 163.732 17.8607L164.096 17.5598L164.11 17.2332C163.764 17.3549 163.427 17.5044 163.103 17.6802C162.775 17.8269 162.436 17.947 162.09 18.0391L156.552 17.9961L157.797 18.1809C156.327 18.1524 154.86 18.0405 153.403 17.8457C153.351 17.7895 153.303 17.7291 153.261 17.6651C151.797 17.6608 151.25 17.4481 149.733 17.4932C149.066 17.5147 148.361 17.5212 147.708 17.5684C146.859 17.6655 146.006 17.7193 145.152 17.7296C144.51 17.7533 143.915 17.6866 143.732 17.7425C143.576 17.7982 143.413 17.83 143.248 17.8371C143.204 17.8327 143.161 17.8455 143.127 17.8727C143.092 17.8999 143.069 17.9395 143.063 17.9832C142.861 17.9832 141.988 18.0176 140.938 18.0584C140.443 18.0756 139.072 18.2303 137.946 18.3378C136.395 18.4818 134.563 18.4624 133.741 18.4667C132.12 18.4753 126.217 18.9739 123.89 18.875C123.418 18.8557 122.834 18.9008 122.298 18.9202C121.9 18.9115 121.501 18.928 121.104 18.9696C120.515 19.0727 120.163 19.1372 119.753 19.1995C119.313 19.2661 118.924 19.408 118.49 19.4853C116.329 19.8722 115.894 20.7855 115.66 21.11C115.431 21.8069 115.281 22.5278 115.214 23.259C115.39 23.3055 115.559 23.3748 115.717 23.4653C115.781 23.504 115.875 25.0598 115.962 26.2203C116.039 26.4564 116.056 26.7086 116.011 26.9531C115.901 27.0311 115.783 27.0974 115.66 27.1508C115.547 27.2299 115.425 27.2942 115.297 27.3421C115.252 27.3173 115.209 27.2885 115.169 27.2561C115.092 27.2336 115.01 27.2336 114.933 27.2561C114.851 27.3023 114.772 27.3563 114.7 27.4173C114.449 27.5626 114.26 27.7947 114.166 28.0706C113.925 28.7371 113.764 29.4305 113.686 30.1358C113.699 30.4044 113.786 31.3929 113.888 32.4502C113.962 33.2088 114.079 34.0706 114.128 34.8614C114.21 36.0816 114.232 37.3052 114.192 38.5276C114.113 39.7031 113.688 41.5856 113.618 42.3227C113.62 42.4468 113.645 42.5693 113.692 42.6838C113.99 44.4529 114.166 46.2409 114.217 48.0348C114.22 48.4531 114.307 48.8664 114.474 49.249C114.774 50.2411 114.958 51.2652 115.023 52.3005C115.068 52.844 115.068 53.3903 115.023 53.9338C115.006 54.0326 115.006 54.067 114.967 54.009C114.59 53.5231 114.17 53.0721 113.714 52.6616C113.478 52.451 113.269 52.2121 113.091 51.9502C113.01 51.8063 113.01 51.615 112.942 51.4861C112.778 51.2145 112.636 50.9299 112.517 50.6351C112.439 50.418 112.39 50.1666 112.298 49.9431C111.895 48.9674 111.542 47.0505 111.223 46.1243C110.963 45.3145 110.773 44.4832 110.656 43.6401C110.593 43.072 110.559 42.501 110.554 41.9295C110.543 41.7017 110.475 41.4094 110.428 40.9839C110.382 40.5584 110.36 39.9889 110.295 39.4538C110.156 38.3106 109.989 37.0255 109.87 36.0262C109.774 35.2267 109.793 34.6121 109.746 34.3972C109.663 34.1349 109.643 33.8565 109.686 33.5846C109.73 33.3127 109.836 33.0551 109.997 32.8328C110.044 32.7533 110.027 32.5856 110.063 32.5104C110.117 32.4563 110.166 32.3973 110.21 32.3342C110.242 32.1779 110.239 32.0164 110.202 31.8613C110.164 31.7062 110.093 31.5616 109.993 31.4381C109.806 31.1437 109.36 30.2475 109.009 29.6716C108.763 29.3107 108.64 28.8783 108.658 28.4402C108.658 28.4402 108.822 25.6938 108.854 25.4058C108.886 25.1179 109.009 24.5505 109.009 24.5505L108.569 24.471C108.51 24.4633 108.455 24.439 108.41 24.401C108.364 24.3629 108.33 24.3126 108.311 24.2558C108.292 24.1991 108.29 24.1381 108.304 24.08C108.318 24.0219 108.348 23.969 108.391 23.9273C108.503 23.8625 108.6 23.7745 108.676 23.6689C108.753 23.5634 108.806 23.4427 108.833 23.3149C108.922 23.1136 109.024 22.9183 109.139 22.7303L108.979 22.827C108.869 22.8993 108.749 22.9537 108.622 22.9882C108.399 23.0527 107.978 23.3858 107.7 22.9689C107.626 22.845 107.519 22.7452 107.391 22.6812C107.263 22.6172 107.12 22.5917 106.978 22.6078C106.886 22.5819 106.79 22.5696 106.695 22.5713L106.691 21.9137C106.661 21.8246 106.653 21.7299 106.666 21.637C106.68 21.5441 106.714 21.4557 106.767 21.3786C106.903 21.2196 107.182 20.8371 107.039 20.721C106.999 20.694 106.95 20.6843 106.902 20.694C106.855 20.7036 106.813 20.7319 106.786 20.7726L106.778 20.7898C106.778 20.7898 104.224 20.8607 103.93 20.8929C103.543 20.9119 103.16 20.9842 102.791 21.1078C102.123 21.2274 101.441 21.2563 100.764 21.1938C100.416 21.1723 100.031 21.0713 99.6274 21.0197C98.9166 21.0447 98.2074 21.1057 97.5025 21.2024C97.5025 21.2024 99.9759 21.2346 99.0728 21.5204C98.1697 21.8063 96.3189 21.3786 95.7452 21.5699C95.3273 21.6843 94.8916 21.7164 94.4617 21.6644C95.2112 21.3787 95.9416 21.0442 96.6483 20.663C97.1759 20.4929 97.7158 20.365 98.2632 20.2805C99.1089 19.9638 99.9859 19.7405 100.879 19.6143C101.518 19.5511 102.143 19.3902 102.734 19.1372C103.145 18.9261 103.618 18.8749 104.064 18.9932C104.396 19.0427 104.967 18.7568 105.49 18.8041C105.753 18.8497 106.022 18.7986 106.251 18.6601C106.916 17.8972 107.583 18.2303 108.057 18.2303C108.114 18.237 108.172 18.2261 108.223 18.199C108.274 18.1719 108.316 18.1298 108.343 18.0783C108.37 18.0268 108.382 17.9682 108.375 17.9102C108.369 17.8522 108.345 17.7975 108.308 17.7533C109.426 17.6458 110.55 17.6027 111.674 17.6243C111.953 17.6117 112.231 17.5844 112.507 17.5427C112.344 17.4883 112.176 17.455 112.005 17.4438C111.228 17.4125 110.453 17.3407 109.683 17.2289C109.542 17.1377 109.381 17.0837 109.215 17.072C109.122 17.0387 109.041 16.979 108.981 16.9001C108.853 16.8757 108.734 16.8145 108.639 16.7239C108.665 16.0684 107.959 14.5684 108.097 14.2568C108.258 13.9806 108.498 13.7608 108.786 13.6272C108.851 14.0151 108.955 14.3953 109.096 14.7618C109.132 14.9109 109.148 15.0641 109.145 15.2174C109.188 15.0777 109.216 14.9335 109.228 14.7876C109.232 14.6802 109.173 14.6737 109.177 14.5899C109.2 13.9775 109.243 12.7547 109.251 11.7941C109.258 11.5093 109.295 11.2261 109.362 10.9495C109.483 10.2339 110.052 8.48893 110.084 8.19451C110.116 7.9001 110.084 7.65726 110.197 6.70311C110.32 5.6415 110.562 4.3736 110.59 4.19738C110.657 3.94918 110.741 3.70581 110.841 3.46887C110.912 3.23217 111.024 3.00972 111.17 2.81127C111.09 3.13198 111.029 3.457 110.985 3.78477C110.977 3.98678 111.036 4.26615 111.028 4.44451C111.017 4.58635 110.983 4.69165 110.97 4.78835C110.947 5.06407 110.985 5.34161 111.081 5.60067L111.198 4.68735C111.271 4.39244 111.383 4.10852 111.529 3.84279C111.667 3.67131 111.771 3.47423 111.835 3.26256L111.863 2.70812C111.902 2.67192 111.929 2.62478 111.941 2.57274C111.941 2.30099 111.96 2.02956 111.997 1.76042C112.065 1.70454 114.262 -0.029699 114.326 0.000386939C114.432 0.0541119 114.043 2.5405 113.977 3.27546C113.91 3.62802 113.879 3.98669 113.886 4.34566C113.937 4.87861 113.898 5.99609 113.92 6.09709C114.129 6.34806 114.371 6.56863 114.64 6.75254C114.64 6.75254 114.619 9.80411 114.564 10.2468C114.471 10.5815 114.304 10.8903 114.075 11.1494C113.845 11.3799 113.678 11.6663 113.59 11.981C113.569 12.3598 113.643 12.7378 113.807 13.0792C113.955 13.4711 114.13 13.8517 114.332 14.2182C114.502 14.503 114.709 14.7632 114.948 14.9918L114.519 13.8206C114.725 13.9018 114.951 13.9198 115.167 13.8722C115.577 13.7905 116.348 13.7131 116.544 13.9646C116.567 14.5083 116.608 14.9359 116.421 15.0498C116.115 15.2432 116.096 15.7482 116.234 16.3607C116.231 16.4388 116.246 16.5165 116.278 16.5876C116.31 16.6586 116.359 16.7211 116.419 16.77C116.479 16.8189 116.55 16.8528 116.626 16.869C116.701 16.8853 116.779 16.8834 116.854 16.8636C117.288 16.8534 117.717 16.7758 118.127 16.6336C119.187 16.3326 120.286 16.1907 121.387 16.2124C122.154 16.153 122.924 16.1415 123.692 16.178C124.472 16.1995 125.447 16.0491 126.958 16.0126C127.778 15.9911 128.573 15.9459 129.408 15.9288C130.167 15.9159 130.959 15.8106 131.646 15.7848C132.438 15.7504 133.155 15.7504 133.743 15.7053C135.018 15.6064 136.306 15.5978 137.39 15.6107C138.187 15.6392 138.982 15.7094 139.772 15.8213C140.819 15.8256 141.525 15.8363 141.525 15.8363C140.313 15.8965 139.767 16.0555 138.883 16.0749C138.371 16.0657 137.861 16.0183 137.356 15.9331C137.164 15.9051 136.784 15.9567 136.357 15.9438C135.844 15.9108 135.33 15.9065 134.816 15.9309C133.635 16.0169 133.04 16.1759 132.496 16.1458C133.567 16.221 135.498 16.4101 136.503 16.4037C137.712 16.4017 138.919 16.2989 140.112 16.0964C140.409 16.0169 143.154 15.7869 143.703 15.8041C145.245 15.8471 145.685 15.7439 146.182 15.7934C146.735 15.8206 147.288 15.817 147.84 15.7826C148.042 15.7762 148.596 15.8406 149.359 15.8385C149.878 15.8385 150.626 15.7697 151.293 15.7826C153.605 15.8256 155.63 15.7182 157.795 15.8213C158.499 15.8681 159.205 15.8175 159.895 15.6709C160.256 15.529 160.642 15.4611 161.029 15.471C162.533 15.5676 164.041 15.5676 165.545 15.471C166.112 15.356 166.702 15.4595 167.198 15.7611L168.452 16.1308L167.223 16.0341L166.741 16.0964C166.592 16.1179 167.723 16.2533 168.093 16.4295C169.164 16.5246 170.24 16.5404 171.314 16.4767C172.111 16.4992 172.908 16.4496 173.696 16.3285C174.379 16.1871 175.075 16.1237 175.772 16.1394C175.772 16.1394 178.322 16.1329 178.207 16.2017C178.092 16.2704 177.06 16.3972 176.688 16.4939L176.242 16.6121C176.563 16.6078 177.508 16.5863 178.792 16.552C179.618 16.3673 180.461 16.2658 181.307 16.249C181.639 16.2769 181.754 16.2812 181.754 16.2812L187.081 16.4316C187.081 16.4316 187.81 16.3371 188.318 16.3027C188.788 16.3305 189.255 16.4054 189.712 16.5262C189.804 16.5414 189.889 16.5832 189.958 16.6465C190.536 16.6594 191.212 16.6788 191.958 16.7088L194.28 16.8012C194.508 16.812 194.729 16.7905 194.964 16.8012C195.177 16.8077 195.398 16.8464 195.612 16.855C195.87 16.8657 196.105 16.9151 196.369 16.9259C196.671 16.9388 197 16.9108 197.306 16.9259C197.886 16.9517 198.683 17.0699 199.289 17.0935C201.97 17.2053 204.83 17.317 207.525 17.4223C208.211 17.4481 209.046 17.4008 209.705 17.4266C210.364 17.4524 210.84 17.5469 211.458 17.5684L212.047 17.5899C212.176 17.5964 212.306 17.5684 212.433 17.5727C212.529 17.577 212.625 17.6136 212.72 17.6157L213.307 17.6415C213.759 17.6587 214.314 17.6179 214.73 17.6329C215.049 17.6437 215.236 17.7124 215.532 17.7232C217.805 17.807 219.533 17.8951 219.66 17.8994C220.094 17.9015 219.992 18.1831 219.992 18.1831V18.1809ZM188.919 32.6071C188.803 32.2048 188.644 31.8164 188.445 31.4488C188.237 30.9889 188.08 30.514 187.967 30.2174L187.687 29.4975C187.646 29.3239 187.551 29.1679 187.417 29.0527C187.351 28.9832 187.273 28.9264 187.187 28.8851C187.011 28.8103 186.825 28.7646 186.635 28.7497C186.548 28.7423 186.465 28.7117 186.394 28.6611C186.323 28.6105 186.267 28.5416 186.231 28.4617C186.231 28.4617 186.252 27.9739 186.252 27.5204C186.24 27.4589 186.214 27.4013 186.174 27.3529C186.135 27.3045 186.084 27.2668 186.027 27.2432C185.959 27.1143 185.644 27.2991 184.901 26.981C184.697 26.8655 184.471 26.7945 184.238 26.7726C183.704 27.0456 183.215 27.4 182.789 27.8235C182.237 28.4614 181.583 29.0012 180.855 29.4202C179.997 29.8744 179.27 30.5459 178.745 31.3693C178.187 32.1107 177.851 32.9981 177.776 33.9266C177.825 34.8249 178.186 34.9302 177.835 36.0197L177.672 35.1451C177.672 35.1451 177.506 34.8442 177.359 36.1637C177.264 37.2776 177.262 38.3976 177.353 39.5118C177.434 39.8069 177.55 40.0912 177.697 40.3586C177.842 40.7062 177.966 41.0621 178.069 41.4245C178.173 41.7339 178.324 42.0863 178.42 42.4173C178.586 42.9382 178.719 43.4694 178.817 44.0075C178.973 44.5247 179.272 44.9857 179.68 45.3356C179.737 45.3786 179.95 45.6107 180.258 45.9288C180.677 46.4203 181.189 46.8222 181.764 47.1107C182.173 47.2961 182.595 47.4491 183.027 47.5684C183.395 47.6359 183.771 47.6546 184.144 47.6243C184.525 47.6221 184.901 47.5401 185.249 47.3836C186.047 46.9531 186.867 46.5671 187.706 46.2275C187.982 46.1265 187.642 46.0061 187.642 46.0061L187.068 45.456C186.513 45.4461 185.963 45.3504 185.436 45.1723C184.798 44.8574 184.187 44.4863 183.613 44.0634L182.347 43.8378L181.898 43.7647C181.898 43.7647 182.319 43.6014 182.429 43.5326C182.576 43.4763 182.73 43.4402 182.886 43.4252C182.886 43.4252 182.642 43.0964 182.425 42.7719C181.926 41.9237 181.694 40.9416 181.76 39.9567C181.781 39.6572 181.894 39.3718 182.083 39.1401C182.185 39.0634 182.298 39.0013 182.417 38.9553C182.518 38.9281 182.621 38.9065 182.725 38.8908C182.91 38.8435 183.109 38.7747 183.326 38.7361C183.981 38.6179 183.772 38.0118 184.112 38.0247C184.31 38.0333 184.217 38.4137 184.661 38.3363C185.895 37.936 187.026 37.2645 187.973 36.37C188.354 36.0671 188.666 35.6844 188.887 35.2482C189.053 34.807 189.065 34.3219 188.921 33.8729C188.764 33.3077 188.991 33.052 188.919 32.6071ZM181.851 42.5656C181.751 42.542 181.66 42.4898 181.588 42.4151C181.437 42.3891 181.3 42.3114 181.2 42.1952C181.099 42.079 181.041 41.9313 181.035 41.7769C181.008 41.332 181.042 40.9646 181.027 40.7088C180.995 40.2447 180.946 40.105 181.082 40.2038C181.196 40.5591 181.266 40.9272 181.29 41.2998C181.342 41.4898 181.377 41.6839 181.395 41.88C181.46 41.9651 181.536 42.0417 181.62 42.1078C181.671 42.273 181.748 42.4279 181.851 42.5656ZM185.581 31.1608C185.53 32.1285 185.385 33.0888 185.147 34.0276C184.866 34.7854 184.301 35.4008 183.575 35.7404C183.162 35.8723 182.768 36.0587 182.404 36.2948C182.287 36.459 182.223 36.6556 182.221 36.8578C182.093 35.9958 182.068 35.1213 182.147 34.2533C182.198 34.0178 182.262 33.7853 182.338 33.557C182.445 33.1596 182.58 32.7703 182.742 32.3922C182.882 32.0686 183 31.7354 183.095 31.3951C183.244 31.0724 183.413 30.7595 183.6 30.4581C183.512 30.4777 183.429 30.5175 183.358 30.5745C183.286 30.6315 183.229 30.7041 183.19 30.7869C182.978 31.105 182.786 31.2898 182.578 31.6143C182.422 31.889 182.284 32.1741 182.166 32.4674C182.036 32.7639 181.879 33.048 181.698 33.3163C181.937 32.7934 182.127 32.2496 182.268 31.6916C182.452 31.0748 182.785 30.5141 183.237 30.0606C183.377 30.0022 183.53 29.9803 183.681 29.9968C183.832 30.0133 183.977 30.0677 184.102 30.1551C184.257 30.2862 184.567 30.6129 184.884 30.8922C185.2 31.1716 185.54 30.759 185.585 30.8235C185.655 31.1522 185.653 31.1608 185.581 31.1608ZM149.457 21.557C149.353 21.2098 149.253 20.8616 149.155 20.5126L148.849 20.4825C148.719 20.5505 148.575 20.5887 148.429 20.5942C148.249 20.6522 148.076 20.7307 147.914 20.8285C147.807 20.8726 147.689 20.8816 147.577 20.8542C147.464 20.8269 147.363 20.7645 147.287 20.6759C147.207 20.4808 147.131 20.2837 147.06 20.0849C146.566 20.0439 146.07 20.0489 145.577 20.1C144.854 20.5781 144.184 21.1336 143.579 21.7568C143.463 22.1974 146.316 23.8972 147.392 24.0885C148.157 24.2239 148.375 24.2131 148.581 23.8414C148.681 23.6587 149.081 22.7776 149.278 22.4015C149.514 21.9588 149.57 21.9288 149.457 21.557ZM148.486 22.8034C148.259 23.4825 148.152 23.4782 147.88 23.5577C147.61 23.5949 147.335 23.584 147.069 23.5255C146.94 23.373 146.786 23.2442 146.614 23.1451L146.435 23.0118C146.601 23.0978 146.854 23.13 146.937 23.1795C147.043 23.2375 147.345 23.3772 147.345 23.3772C147.494 23.3482 147.646 23.3359 147.797 23.3406C147.876 23.3594 147.959 23.3457 148.028 23.3025C148.097 23.2594 148.146 23.1904 148.165 23.1107L148.169 23.0849C148.33 22.7547 148.512 22.4353 148.713 22.1286L148.486 22.8034ZM97.783 28.1544C97.5323 28.0598 97.4239 27.9116 97.188 27.832C96.7002 27.7537 96.2198 27.6343 95.7516 27.4753C94.5162 26.9695 93.2362 26.5831 91.9288 26.3213L91.7461 27.226C91.6448 26.9332 91.5729 26.6308 91.5315 26.3235C91.5038 26.1257 91.0555 26.4159 91.0257 26.0355C91.0045 25.7798 90.8026 24.5634 90.7877 24.2733C90.7792 24.0713 90.9832 22.9667 90.979 22.7475C90.9556 21.63 90.7899 21.759 90.741 20.7017C90.6687 19.0684 91.217 19.0341 90.741 16.9409C90.5865 15.9232 90.7039 14.8823 91.081 13.9259C91.1285 13.083 91.2236 12.2435 91.3657 11.4116C91.3933 11.2 91.4658 10.9969 91.5782 10.8163C91.686 10.7261 91.8123 10.6615 91.948 10.6272C92.0792 10.6364 92.2078 10.6684 92.3283 10.7217C92.5302 10.7325 92.7724 11.3557 93.0295 11.8048C93.2898 12.3054 93.4854 12.8377 93.6118 13.3886C93.6316 14.0522 93.5188 14.7129 93.2803 15.3313C92.9784 15.8428 92.579 16.2884 92.1052 16.6422C92.0137 16.7241 91.9474 16.8307 91.914 16.9495C92.0257 16.9324 92.14 16.9449 92.2454 16.9861C92.5008 17.1485 92.7981 17.2308 93.0997 17.2224C93.8753 17.1881 93.9156 17.1129 94.7996 16.2597C95.7983 15.2948 96.6292 14.3192 96.6292 14.3192C96.9738 14.0256 97.2257 13.6364 97.3538 13.1995C97.4294 12.6587 97.4494 12.1113 97.4133 11.5663C97.3346 11.4073 96.8204 11.5319 96.6908 11.4245C96.0088 10.4736 95.3892 9.47866 94.8357 8.44595C94.5058 7.72241 94.1073 7.03294 93.6458 6.38721C93.6221 6.29947 93.5864 6.21555 93.5395 6.13792C93.2548 6.04337 93.14 5.94881 92.902 5.89079C92.2975 5.71216 91.7018 5.50418 91.1171 5.26758C90.8669 5.15297 90.6083 5.05814 90.3436 4.98391C90.2523 4.94788 90.1546 4.9312 90.0567 4.9349C89.9587 4.93859 89.8626 4.96259 89.7742 5.0054C89.4165 5.32996 89.0827 5.68046 88.7754 6.05411C88.5353 6.34852 88.2867 6.7289 88.0211 7.0448C87.458 7.71314 86.8651 8.30626 86.625 8.62646C86.5341 8.70888 86.4585 8.80714 86.4019 8.91658C86.3148 9.25397 86.5039 9.66013 86.3764 10.0083C86.2106 10.4596 85.6412 11.1687 85.5434 11.5126C85.4636 11.7675 85.4116 12.0306 85.3883 12.2969C85.3783 12.687 85.4432 13.0752 85.5795 13.4402C85.7886 14.0861 85.8575 14.77 85.7814 15.4452C85.758 16.1823 86.1873 17.1214 86.2574 19.1136C86.1685 20.4375 86.3463 21.7659 86.7801 23.0183C87.0618 23.6279 87.2852 24.2633 87.4474 24.9159C87.2874 24.8956 87.1251 24.9065 86.9693 24.9481C86.047 25.0942 83.4036 25.3285 83.4036 25.3285L83.0466 25.4144L83.3101 25.7346C83.3101 25.7346 84.0879 26.2719 84.6063 26.6028C84.8231 26.7447 85.0781 26.8822 85.2651 27.0047C85.6475 27.2475 85.8282 27.3313 85.9939 27.4495C86.6444 27.9637 87.2347 28.5513 87.7534 29.201C87.8026 29.2987 87.8384 29.4028 87.8596 29.5104C87.9716 29.6651 88.0564 29.8381 88.1103 30.0219C87.9177 29.8334 87.7061 29.6656 87.4792 29.5212C87.3815 29.5598 87.4325 33.2002 87.4261 36.9889C87.4261 37.0792 87.5005 37.0534 87.5026 37.1437C87.5664 40.9302 87.0564 40.7626 87.0564 40.7626C87.1131 41.6388 87.2809 42.5041 87.5557 43.3371C87.7575 45.7051 87.5482 48.0906 86.9374 50.3858C86.9034 50.461 87.356 46.4144 87.2221 45.9588C87.0883 45.5032 86.8928 44.0505 86.8928 44.0505C86.8928 44.0505 86.8099 45.4753 86.6059 47.2676C86.421 48.6131 86.1513 49.9454 85.7984 51.2561C85.7538 51.4237 86.9565 50.6394 86.9884 50.7683C87.1342 50.8458 87.3042 50.8628 87.4622 50.8156L88.3653 52.7712C88.3653 52.7712 87.4474 51.5462 86.9416 52.1179C86.8099 52.2661 86.1129 53.8328 86.1129 53.8328C86.1129 53.8328 86.2234 54.5806 85.2268 55.6293C85.0186 55.8464 85.2481 56.2676 85.4159 56.5813C85.5413 56.8134 85.7474 56.9015 85.3692 57.4388C84.3216 58.0875 83.1249 58.4489 81.8971 58.4875C81.6354 58.4637 81.3724 58.5128 81.1363 58.6293C80.9578 58.7497 79.7976 58.2683 79.7594 58.5348C79.7169 58.827 81.948 59.678 81.948 59.678C82.8075 59.8623 83.6832 59.9581 84.5617 59.9639C84.6616 59.8349 84.9059 59.5835 85.0143 59.4395C85.1376 59.2719 85.2608 59.0462 85.3947 58.855C85.5525 58.7201 85.7029 58.5766 85.8452 58.4252L86.3679 57.4538C86.3679 57.4538 87.3921 57.0455 87.3199 57.2647C87.2242 57.5505 86.0917 58.3586 86.013 58.7604C85.9854 58.8894 86.115 59.0097 86.0832 59.1773C86.0513 59.3449 86.1044 59.259 86.0832 59.4868C86.0577 59.7704 85.2757 59.9639 85.2757 59.9639C85.8128 59.9376 86.3422 59.8244 86.8439 59.6286C87.747 59.2482 88.0338 59.057 88.7924 58.6766C89.6107 57.7122 90.1718 56.5523 90.4223 55.307C90.491 55.0413 90.5379 54.7703 90.5625 54.4968C90.605 54.2432 90.6879 54.0133 90.707 53.7704C90.741 53.332 90.792 52.7948 90.8154 52.3285C90.8345 51.9481 90.7856 51.5548 90.792 51.1852C90.7962 50.7855 90.8557 50.4116 90.843 50.0677C90.8479 49.5757 90.782 49.0857 90.6475 48.6128C90.3564 47.8822 90.7495 47.7318 90.7792 47.0548C90.8154 46.2447 90.7049 45.4366 90.6942 43.7561C90.69 42.6472 90.758 41.4008 90.7346 40.2533C90.7217 39.6227 90.7033 38.9923 90.6794 38.3621C90.7559 38.8521 90.8239 39.1981 90.8239 39.0283C90.8239 38.6286 90.7941 37.3951 90.7941 36.9073C90.7941 36.4194 91.1787 36.2389 90.8345 35.764C90.7245 35.6211 90.666 35.4444 90.6687 35.2633C90.6369 35.0849 90.5625 35.0484 90.5391 34.9044C90.536 34.7203 90.487 34.54 90.3968 34.38C90.0568 33.8944 89.2429 32.5341 89.2429 32.5341L90.9684 34.6809C91.1783 33.5457 91.2475 32.3885 91.1745 31.2361C91.176 30.726 91.2079 30.2165 91.2701 29.7103L93.4163 29.8177L95.078 29.6565L97.3261 29.5813L98.7031 29.6522L100.539 29.2826C100.184 28.9919 99.802 28.7371 99.3979 28.5219C98.8242 28.2275 98.2781 28.3457 97.783 28.1565V28.1544ZM90.6772 19.7346C90.5491 19.2069 90.4652 18.6692 90.4265 18.1272C90.3776 17.8371 90.1078 17.5684 89.9633 16.9839C89.9683 16.033 90.0839 15.0859 90.3075 14.1623L90.3819 15.0778C90.4499 16.0921 90.6518 16.9474 90.6772 17.5319C90.7215 18.2655 90.7215 19.0011 90.6772 19.7346ZM204.374 22.898C204.23 22.8369 204.091 22.7636 203.959 22.6788C203.826 22.5621 203.701 22.4356 203.585 22.3005L201.96 21.1831L200.387 20.201L198.139 19.2232C197.605 19.1741 197.069 19.154 196.533 19.163C195.995 19.1743 195.46 19.2275 194.93 19.322C194.899 19.3392 194.578 19.6723 194.236 20.0011C193.836 20.3815 193.407 20.764 193.407 20.764L193.007 20.9853L192.829 21.2088L193.016 21.3593L193.211 21.63L193.267 22.0233C193.387 22.048 193.496 22.1141 193.575 22.2103C193.681 22.2473 193.79 22.2725 193.902 22.2855L194.034 22.7518C194.182 22.8141 194.306 22.9225 194.389 23.0613C194.24 23.025 194.104 22.9485 193.995 22.8399C193.877 22.8067 193.753 22.7929 193.63 22.7991C193.569 22.7879 193.512 22.7596 193.466 22.7174C193.312 22.698 193.155 22.7142 193.007 22.7647C193.048 22.6218 193.064 22.4727 193.054 22.3242C192.988 22.2618 192.902 22.2266 192.812 22.2253C192.77 22.2151 192.734 22.1908 192.708 22.1565C192.692 22.045 192.652 21.9383 192.591 21.8442C192.53 21.7502 192.448 21.6711 192.353 21.6129C192.353 21.6129 191.074 22.8485 190.793 23.0914C190.683 23.1859 190.496 23.3063 190.215 23.5212C189.969 23.7103 189.794 23.8693 189.522 24.1014C189.448 24.4775 189.225 24.8428 189.104 25.3564C189.059 25.5455 189.384 25.5154 189.467 25.9646C189.55 26.4137 189.637 26.779 189.682 26.9381C189.737 27.1315 189.873 27.3012 190.056 27.8406C190.173 28.1845 190.268 28.5885 190.375 28.9216C190.532 29.418 190.729 29.822 190.766 29.9703C190.792 30.1573 190.842 30.3401 190.914 30.514C191.04 30.6974 191.181 30.8699 191.335 31.0298C191.419 31.1331 191.491 31.2456 191.55 31.365C191.611 31.4853 191.686 31.5756 191.737 31.7024C191.822 31.9087 191.875 32.1472 191.962 32.3192C192.232 32.7392 192.536 33.136 192.871 33.5054C192.871 33.5054 193.942 34.5369 194.029 34.6594C194.142 34.7659 194.275 34.8484 194.42 34.9022L194.682 35.4373L195.319 36.4108C195.696 36.8159 196.052 37.2398 196.386 37.6809C196.741 38.1838 197.193 38.7554 197.559 39.3141C197.83 39.7408 198.05 40.199 198.213 40.6788C198.46 41.3572 198.598 42.071 198.624 42.7934C198.868 42.7762 199.129 41.6716 199.129 41.6716C199.158 41.9691 199.125 42.2694 199.032 42.5531C198.938 42.8367 198.787 43.0972 198.587 43.3177L198.43 45.0799C198.32 45.1959 198.18 45.2792 198.026 45.3206C197.787 45.4086 197.53 45.4345 197.278 45.3958C197.194 45.1794 197.167 44.9449 197.198 44.7146C197.148 44.1751 197.063 43.6395 196.943 43.1114C196.883 42.7096 197.013 42.0498 196.72 41.951C196.427 41.7663 196.169 41.5322 195.955 41.259C195.411 40.6594 194.584 39.802 193.787 38.807C193.5 38.4481 193.179 38.1687 192.963 37.8894C192.789 37.6696 192.639 37.431 192.516 37.178L191.769 37.1028C191.793 38.0484 191.756 38.9945 191.658 39.9352C191.593 40.2437 191.497 40.5446 191.371 40.8335C191.265 41.1773 191.229 41.4868 191.159 41.6952C190.994 42.5679 191.02 43.4663 191.235 44.3277C191.459 43.8555 191.61 43.3509 191.681 42.832C191.73 42.3636 191.469 41.981 191.533 41.5319C191.595 41.1511 191.687 40.776 191.809 40.4101L191.766 41.317C191.818 41.5859 191.893 41.8498 191.989 42.1057C192.021 42.6747 191.962 43.2451 191.813 43.7948L191.635 44.5663C191.635 44.5663 191.656 45.3765 191.505 45.4259C191.356 45.6229 191.258 45.8551 191.222 46.1007L190.961 47.5985L190.685 46.4123C190.477 46.6335 190.282 46.8667 190.1 47.1107C190.017 47.3033 189.962 47.5076 189.939 47.7167C189.901 47.8242 189.926 47.8886 190.1 47.966C190.196 48.009 190.343 48.0305 190.504 48.0777C190.6 48.1057 190.7 48.1637 190.797 48.1895C191.12 48.2776 191.35 48.1336 191.739 48.226C192.295 48.3399 192.829 48.5492 193.315 48.8449C193.592 49.0319 193.9 49.148 194.055 49.2747C194.192 49.3417 194.347 49.3635 194.497 49.3371C195.502 49.1402 196.52 49.0131 197.542 48.9567C198.058 48.9416 200.867 48.9438 200.867 48.9438C201.425 48.9863 201.984 48.9971 202.542 48.976C202.848 48.8235 202.878 48.7826 203.345 48.5763C203.454 48.1783 203.613 47.7962 203.819 47.4395C203.851 47.2745 203.867 47.1069 203.868 46.9388L203.774 46.5584C203.774 46.5584 202.935 44.3664 202.797 43.7432C202.722 43.408 202.625 43.1157 202.548 42.8535C202.534 42.624 202.497 42.3966 202.438 42.1745C202.343 42.0331 202.271 41.877 202.225 41.7124C202.215 41.5381 202.164 41.3688 202.077 41.2181C201.952 41.0713 201.841 40.913 201.745 40.7454C201.62 40.5305 201.758 40.3843 201.609 40.1458C201.507 39.9846 201.216 39.9073 201.112 39.7396C200.976 39.5247 200.927 39.2389 200.793 39.0283C200.487 38.5512 200.194 38.0828 199.943 37.6809C199.514 36.9954 199.28 36.4538 199.25 36.428L198.796 35.9896L198.29 35.3235L197.563 34.4617C197.563 34.4617 197.357 34.221 197.07 33.8772C196.715 33.6277 196.364 33.3712 196.018 33.1078C195.648 32.8162 195.266 32.5409 194.873 32.2826C193.969 31.832 193.144 31.2337 192.431 30.5118C192.782 30.8072 193.177 31.043 193.602 31.2103C193.838 31.2662 194.054 31.3875 194.225 31.5606C194.454 31.6609 194.698 31.7191 194.947 31.7325L196.214 32.8285C195.926 32.473 195.659 32.1013 195.413 31.7153C195.019 31.1916 194.82 30.5439 194.852 29.8865C194.941 29.072 194.686 28.3177 195.2 27.6881C195.831 27.0214 196.555 26.4516 197.349 25.9968C197.723 25.754 198.42 25.3349 198.42 25.3349C197.685 25.3246 196.96 25.5005 196.309 25.8464C195.744 26.3311 195.219 26.8615 194.739 27.4323L194.909 26.9789C194.909 26.9789 195.838 25.552 196.297 25.3457C196.532 25.3446 196.768 25.3245 197 25.2855C197 25.2855 198.893 24.6494 199.274 24.6043C199.552 24.572 199.261 25.5412 199.261 25.5412C199.372 25.5879 199.463 25.6718 199.519 25.7787C199.576 25.8856 199.594 26.0089 199.571 26.1279C199.55 26.6651 199.535 27.4603 199.516 27.8879C199.528 28.002 199.558 28.1136 199.603 28.2189C199.706 28.2661 199.816 28.2938 199.928 28.3005C200.06 28.2924 200.191 28.2708 200.319 28.2361L200.606 28.5863L200.67 30.1766L201.093 31.0512C201.093 31.0512 201.46 30.8707 201.919 30.6064C202.091 30.5075 202.281 30.456 202.472 30.3378C202.896 30.1092 203.251 29.7682 203.498 29.3514C203.721 28.6272 203.902 27.6838 204.11 27.1788C204.208 26.9567 204.326 26.7445 204.463 26.5448C204.097 27.0754 203.8 27.6519 203.581 28.2597C203.431 28.6106 203.216 28.9294 202.948 29.1988C202.799 29.476 202.756 29.3836 202.756 29.3836C202.756 29.3836 202.837 29.3127 202.948 29.1988C203.14 28.7989 203.302 28.3843 203.43 27.9588C203.991 26.274 204.775 25.4875 205.111 25.5627C205.137 25.5679 205.163 25.5694 205.19 25.567C205.221 25.5288 205.246 25.4851 205.262 25.4381C205.252 24.8116 205.165 24.1887 205.005 23.5835C204.806 23.3427 204.595 23.1131 204.371 22.8958L204.374 22.898ZM196.836 46.6508L196.227 45.5828L196.278 44.6157L196.479 44.7661C196.573 43.8411 196.415 42.9077 196.023 42.067C196.305 42.4015 196.514 42.7923 196.637 43.2141C196.759 43.6359 196.793 44.079 196.734 44.5147C196.671 44.9383 196.698 45.3706 196.812 45.7832C196.925 46.1958 197.124 46.5794 197.395 46.9087L196.836 46.6508Z" fill="white"/>
</g>
<defs>
<clipPath id="clip0_2_7">
<rect width="220" height="60" fill="white"/>
</clipPath>
</defs>
</svg>
