<svg preserveAspectRatio="none" viewBox="0 0 1216 245" fill="none" xmlns="http://www.w3.org/2000/svg">
  <path
    d="M687.563 8.91868L28.8442 0L11.7195 45.1316L39.7633 47.8995L0.369038 64.1991C2.60928 66.762 7.54123 72.3182 9.34703 74.0404C11.1528 75.7626 11.3747 81.7289 11.2598 84.4968C10.8601 94.1331 10.8972 115.866 14.2435 125.707C17.5898 135.549 22.1924 160.357 24.0755 171.531L7.70023 198.594L42.401 210.588C38.0576 211.588 28.4167 213.956 24.6009 215.432C20.7852 216.908 14.9341 222.198 12.4855 224.658L0 242.803C23.4443 243.316 72.6769 244.403 82.0529 244.649C93.7729 244.956 138.383 244.341 145.397 244.956C151.008 245.448 236.267 241.676 278.194 239.728L444.749 240.958L1090.8 244.034H1134.22L1211.78 240.958L1203.99 230.809C1200.34 224.377 1193.08 211.019 1193.16 209.051C1193.26 206.59 1187.72 198.594 1184.28 196.749C1181.53 195.273 1172.32 192.854 1168.06 191.829L1180.05 185.678C1180.52 183.627 1181.49 179.219 1181.54 177.989C1181.59 176.759 1196.01 112.073 1203.21 79.8837L1182.84 61.7388L1216 54.3578L1209.93 2.76787L1038.6 3.38295L687.563 8.91868Z"
    fill="#060C0C" fill-opacity="0.7" />
</svg>