<svg width="1216" height="669" viewBox="0 0 1216 669" fill="none" xmlns="http://www.w3.org/2000/svg">
  <g clip-path="url(#clip0_3_4)">
    <path
      d="M687.563 24.3535L28.8442 0L11.7195 123.237L39.7633 130.795L0.369038 175.303C2.60928 182.301 7.54123 197.473 9.34703 202.176C11.1528 206.878 11.3747 223.17 11.2598 230.728C10.8601 257.041 10.8972 316.385 14.2435 343.257C17.5898 370.132 22.1924 437.873 24.0755 468.385L7.70023 542.283L42.401 575.034C38.0576 577.765 28.4167 584.231 24.6009 588.261C20.7852 592.292 14.9341 606.737 12.4855 613.454L0 663.001C23.4443 664.402 72.6769 667.37 82.0529 668.042C93.7729 668.88 138.383 667.2 145.397 668.88C151.008 670.223 236.267 659.923 278.194 654.604L444.749 657.963L1090.8 666.362H1134.22L1211.78 657.963L1203.99 630.25C1200.34 612.687 1193.08 576.211 1193.16 570.837C1193.26 564.117 1187.72 542.283 1184.28 537.245C1181.53 533.215 1172.32 526.609 1168.06 523.811L1180.05 507.015C1180.52 501.414 1181.49 489.378 1181.54 486.019C1181.59 482.66 1196.01 306.028 1203.21 218.131L1182.84 168.585L1216 148.43L1209.93 7.55798L1038.6 9.23752L687.563 24.3535Z"
      fill="#060C0C" fill-opacity="0.7" />
  </g>
  <defs>
    <clipPath id="clip0_3_4">
      <rect width="1216" height="669" fill="white" />
    </clipPath>
  </defs>
</svg>