<svg width="1015" height="125" viewBox="0 0 1015 125" fill="none" xmlns="http://www.w3.org/2000/svg">
  <g clip-path="url(#clip0_58_2)">
    <path d="M1004.85 10H15.225V115H1004.85V10Z" fill="#323335" />
    <path d="M1004.83 10H4.8333V115H1004.83V10Z" fill="#44997E" />
    <mask id="mask0_58_2" style="mask-type:luminance" maskUnits="userSpaceOnUse" x="0" y="0" width="1015" height="125">
      <path fill-rule="evenodd" clip-rule="evenodd"
        d="M0 97.6352C0 75.5185 0 53.2768 0 31.285C0 29.1608 1.015 27.1616 1.015 25.0374C2.03 8.04371 6.09 -0.328165 15.225 0.171649C23.345 0.546509 31.465 1.54614 38.57 1.42118C62.93 1.17128 88.305 0.421555 112.665 0.171649C114.695 0.0466953 117.74 1.42118 120.785 1.921C125.86 2.92062 130.935 4.91988 134.995 4.66997C145.145 3.7953 155.295 0.546509 164.43 0.296602C185.745 -0.328165 206.045 0.546509 226.345 0.546509C287.245 0.671462 347.13 0.421555 408.03 0.546509C428.33 0.671462 448.63 1.29623 467.915 2.42081C477.05 2.92062 486.185 5.6696 495.32 6.79418C500.395 7.54389 506.485 9.04333 511.56 1.04632C511.56 -0.328165 514.605 0.0466953 514.605 0.0466953C586.67 0.0466953 659.75 0.0466953 731.815 0.171649C731.815 0.171649 734.86 1.04632 736.89 1.54614C740.95 2.67072 745.01 4.79492 749.07 4.54501C759.22 3.67034 770.385 0.421555 780.535 0.296602C854.63 -0.078258 928.725 0.171649 1001.8 0.0466953C1005.86 0.0466953 1007.89 2.29586 1009.92 8.54352C1010.94 13.5417 1011.95 18.5398 1012.97 23.9128C1013.98 41.2813 1013.98 58.8997 1015 76.3932C1015 88.5136 1013.98 99.1347 1010.94 109.881C1008.91 118.128 1005.86 120.502 1001.8 121.002C977.445 123.376 954.1 118.377 930.755 119.752C873.915 122.876 818.09 120.627 762.265 120.877C757.19 120.877 752.115 123.626 747.04 125C743.995 125 740.95 125 737.905 125C733.845 123.626 729.785 120.877 725.725 121.002C696.29 121.251 666.855 121.501 636.405 122.626C553.175 125 469.945 115.878 386.715 121.876C328.86 125 271.005 123.001 213.15 122.501C199.955 122.501 185.745 119.002 172.55 119.002C118.755 119.127 64.96 120.252 11.165 120.752C5.075 120.877 2.03 115.878 1.015 103.133C1.015 101.259 0 99.5095 0 97.6352ZM65.975 34.4089C65.975 35.1586 65.975 35.7833 64.96 36.5331C62.93 34.6588 60.9 31.1601 57.855 31.0351C44.66 30.4104 31.465 30.5353 18.27 31.0351C18.27 31.0351 15.225 35.4085 15.225 38.2824C14.21 48.5286 14.21 59.0247 14.21 69.2708C14.21 85.5148 15.225 90.263 25.375 89.2634C43.645 87.639 60.9 85.1399 79.17 85.2649C124.845 85.6397 170.52 87.1392 216.195 87.8889C220.255 88.0138 224.315 86.1395 228.375 85.1399C230.405 86.3894 233.45 89.2634 236.495 89.2634C261.87 89.5133 287.245 89.3883 312.62 89.1384C325.815 89.0135 337.995 88.8885 350.175 88.1388C360.325 87.639 369.46 85.6397 379.61 85.6397C389.76 85.5148 398.895 87.2641 408.03 87.7639C418.18 88.3887 428.33 87.0142 437.465 89.0135C446.6 91.0127 455.735 86.8893 465.885 88.8885C475.02 90.8878 485.17 87.639 495.32 87.3891C506.485 87.1392 518.665 87.7639 529.83 88.1388C531.86 88.2637 534.905 89.7632 536.935 89.6382C553.175 89.3883 569.415 89.2634 585.655 88.3887C604.94 87.3891 624.225 84.2652 643.51 84.6401C677.005 85.3898 709.485 89.1384 742.98 89.7632C772.415 90.263 802.865 87.639 832.3 87.514C884.065 87.1392 936.845 87.8889 989.625 87.514C1004.85 87.514 1000.79 87.3891 1004.85 62.3984C1004.85 61.7736 1004.85 61.1489 1004.85 60.5241C1005.86 37.0329 1003.83 32.7845 991.655 32.5346C967.295 31.9098 941.92 31.0351 917.56 31.0351C903.35 31.0351 890.155 32.0347 876.96 34.034C871.885 34.7837 866.81 38.9072 862.75 31.7848C861.735 30.0355 859.705 30.7852 857.675 30.9102C840.42 32.7845 824.18 35.2835 806.925 36.5331C785.61 38.0325 765.31 38.4074 743.995 39.6569C736.89 40.1567 728.77 40.9064 721.665 34.4089C719.635 32.7845 717.605 33.0344 715.575 32.9094C694.26 32.9094 672.945 32.7845 650.615 33.0344C648.585 33.0344 645.54 35.5334 642.495 36.5331C639.45 37.4077 637.42 38.6573 634.375 38.2824C629.3 37.5327 623.21 34.9087 618.135 34.6588C579.565 32.9094 542.01 30.9102 503.44 30.1604C478.065 29.6606 452.69 29.4107 427.315 32.5346C385.7 37.4077 344.085 38.6573 302.47 34.4089C280.14 32.4096 256.795 30.5353 233.45 32.1597C180.67 35.9083 126.875 35.6584 74.095 31.285C71.05 31.0351 68.005 33.2843 65.975 34.4089Z"
        fill="white" />
    </mask>
    <g mask="url(#mask0_58_2)">
      <path d="M1015 0.0466309H0V125H1015V0.0466309Z" fill="#0F0D09" />
    </g>
  </g>
  <defs>
    <clipPath id="clip0_58_2">
      <rect width="1015" height="125" fill="white" />
    </clipPath>
  </defs>
</svg>